<?xml version="1.0" encoding="UTF-8" standalone="no"?>
<!-- Created with Inkscape (http://www.inkscape.org/) -->

<svg
   xmlns:dc="http://purl.org/dc/elements/1.1/"
   xmlns:cc="http://creativecommons.org/ns#"
   xmlns:rdf="http://www.w3.org/1999/02/22-rdf-syntax-ns#"
   xmlns:svg="http://www.w3.org/2000/svg"
   xmlns="http://www.w3.org/2000/svg"
   xmlns:xlink="http://www.w3.org/1999/xlink"
   xmlns:sodipodi="http://sodipodi.sourceforge.net/DTD/sodipodi-0.dtd"
   xmlns:inkscape="http://www.inkscape.org/namespaces/inkscape"
   width="64"
   height="64"
   id="svg3215"
   version="1.1"
   inkscape:version="0.48.1 r9760"
   sodipodi:docname="icon-l-meegotouchtheme-darko.svg">
  <defs
     id="defs3217">
    <inkscape:perspective
       sodipodi:type="inkscape:persp3d"
       inkscape:vp_x="0 : 526.18109 : 1"
       inkscape:vp_y="0 : 1000 : 0"
       inkscape:vp_z="744.09448 : 526.18109 : 1"
       inkscape:persp3d-origin="372.04724 : 350.78739 : 1"
       id="perspective3223" />
    <inkscape:perspective
       id="perspective3124"
       inkscape:persp3d-origin="0.5 : 0.33333333 : 1"
       inkscape:vp_z="1 : 0.5 : 1"
       inkscape:vp_y="0 : 1000 : 0"
       inkscape:vp_x="0 : 0.5 : 1"
       sodipodi:type="inkscape:persp3d" />
    <linearGradient
       id="SVGID_1_"
       gradientUnits="userSpaceOnUse"
       x1="43.4995"
       y1="0.5"
       x2="43.4995"
       y2="86.500504">
      <stop
         offset="0"
         style="stop-color:#8BADAD"
         id="stop2982" />
      <stop
         offset="1"
         style="stop-color:#2C474D"
         id="stop2984" />
    </linearGradient>
    <clipPath
       id="SVGID_3_">
      <use
         height="1052.3622"
         width="744.09448"
         y="0"
         x="0"
         style="overflow:visible"
         xlink:href="#SVGID_2_"
         overflow="visible"
         id="use3026" />
    </clipPath>
    <clipPath
       id="SVGID_5_">
      <use
         height="1052.3622"
         width="744.09448"
         y="0"
         x="0"
         style="overflow:visible"
         xlink:href="#SVGID_4_"
         overflow="visible"
         id="use3034" />
    </clipPath>
    <clipPath
       id="SVGID_7_">
      <use
         height="1052.3622"
         width="744.09448"
         y="0"
         x="0"
         style="overflow:visible"
         xlink:href="#SVGID_6_"
         overflow="visible"
         id="use3076" />
    </clipPath>
    <clipPath
       id="SVGID_9_">
      <use
         height="1052.3622"
         width="744.09448"
         y="0"
         x="0"
         style="overflow:visible"
         xlink:href="#SVGID_8_"
         overflow="visible"
         id="use3084" />
    </clipPath>
    <inkscape:perspective
       id="perspective4528"
       inkscape:persp3d-origin="0.5 : 0.33333333 : 1"
       inkscape:vp_z="1 : 0.5 : 1"
       inkscape:vp_y="0 : 1000 : 0"
       inkscape:vp_x="0 : 0.5 : 1"
       sodipodi:type="inkscape:persp3d" />
  </defs>
  <sodipodi:namedview
     id="base"
     pagecolor="#ffffff"
     bordercolor="#666666"
     borderopacity="1.0"
     inkscape:pageopacity="0.0"
     inkscape:pageshadow="2"
     inkscape:zoom="11.5625"
     inkscape:cx="38.596617"
     inkscape:cy="32"
     inkscape:document-units="px"
     inkscape:current-layer="g2912"
     showgrid="false"
     inkscape:window-width="1454"
     inkscape:window-height="993"
     inkscape:window-x="164"
     inkscape:window-y="24"
     inkscape:window-maximized="0" />
  <metadata
     id="metadata3220">
    <rdf:RDF>
      <cc:Work
         rdf:about="">
        <dc:format>image/svg+xml</dc:format>
        <dc:type
           rdf:resource="http://purl.org/dc/dcmitype/StillImage" />
        <dc:title />
      </cc:Work>
    </rdf:RDF>
  </metadata>
  <g
     inkscape:label="Layer 1"
     inkscape:groupmode="layer"
     id="layer1"
     transform="translate(-365.14286,-451.79075)">
    <g
       id="g2912"
       transform="matrix(0.75294118,0,0,0.75294118,98.117648,119.52477)">
      <rect
         style="opacity:0.25000000000000000;color:#000000;fill:#ffffff;fill-opacity:1;fill-rule:nonzero;stroke:none;stroke-width:1;marker:none;visibility:visible;display:inline;overflow:visible;enable-background:accumulate"
         id="rect8985"
         width="64.172974"
         height="63.913513"
         x="0"
         y="0.086486489"
         transform="matrix(1.328125,0,0,1.328125,354.64286,441.29075)" />
      <g
         transform="matrix(1.3019983,0,0,1.3291211,344.41167,414.10225)"
         id="g3070"
         style="opacity:0.2">
        <defs
           id="defs3072">
          <rect
             id="SVGID_6_"
             x="49.323002"
             y="77.671997"
             width="18.761999"
             height="2.9460001" />
        </defs>
        <clipPath
           id="clipPath3198">
          <use
             height="1052.3622"
             width="744.09448"
             y="0"
             x="0"
             style="overflow:visible"
             xlink:href="#SVGID_6_"
             overflow="visible"
             id="use3200" />
        </clipPath>
        <g
           clip-path="url(#SVGID_7_)"
           id="g3078">
          <defs
             id="defs3080">
            <rect
               id="SVGID_8_"
               x="49.323002"
               y="77.671997"
               width="18.761999"
               height="2.9460001" />
          </defs>
          <clipPath
             id="clipPath3205">
            <use
               height="1052.3622"
               width="744.09448"
               y="0"
               x="0"
               style="overflow:visible"
               xlink:href="#SVGID_8_"
               overflow="visible"
               id="use3207" />
          </clipPath>
          <path
             style="fill:#231f20"
             clip-path="url(#SVGID_9_)"
             d="m 68.085,79.145 c 0,0.813 -4.2,1.474 -9.381,1.474 -5.181,0 -9.382,-0.66 -9.382,-1.474 0,-0.814 4.201,-1.473 9.382,-1.473 5.181,0 9.381,0.659 9.381,1.473"
             id="path3086" />
        </g>
      </g>
      <path
         style="opacity:0.6;fill:#151616"
         d="m 380.28829,500.99109 7.27693,-10.49947 c 0.55619,-0.80367 0.51044,-1.68482 -0.10573,-1.95744 -0.6162,-0.27264 -1.54002,0.18466 -2.05017,1.01835 l -6.45588,10.49644"
         id="path3502" />
      <path
         style="opacity:0.6;fill:#151616"
         d="m 385.22033,493.87778 c 0.26399,-0.28175 1.06435,-1.63953 0.5315,-1.80859 -0.7599,-0.24733 -1.27433,1.48696 -1.52332,1.92735"
         id="path3504" />
      <path
         style="fill:#231f20"
         d="m 381.38551,501.40341 7.27693,-10.49947 c 0.5574,-0.8032 0.51042,-1.68482 -0.10572,-1.95745 -0.61453,-0.27342 -1.5388,0.18512 -2.05018,1.01836 l -6.45588,10.49644"
         id="path3506" />
      <path
         style="fill:#231f20"
         d="m 386.31754,494.29012 c 0.26517,-0.28136 1.06435,-1.63953 0.5315,-1.80861 -0.75869,-0.24687 -1.27309,1.48741 -1.5233,1.92735"
         id="path3508" />
      <path
         id="path2996"
         d="m 370.22379,510.16449 c -0.93223,0.24987 -1.90352,-0.32165 -2.16002,-1.27198 l -5.94753,-22.07138 c -0.25519,-0.94899 0.28254,-1.98305 1.19524,-2.29805 l 26.5204,-9.15764 c 0.9127,-0.31501 2.1496,0.0585 2.74722,0.82937 l 9.05149,11.66968 c 0.59892,0.77222 0.55856,2.00165 -0.0885,2.73002 l -2.57145,2.89615 c -0.64709,0.72969 -1.24601,1.77571 -1.33195,2.32596 -0.0846,0.54892 -0.90098,0.74033 -1.81498,0.42266 l -15.07974,-5.23673 c -0.9127,-0.31633 -1.24211,0.10638 -0.73303,0.94101 l 3.74064,6.12592 c 0.50908,0.83336 1.71604,1.5059 2.67952,1.49127 l 10.54488,-0.1555 c 0.96478,-0.0159 1.89051,0.6433 2.05846,1.46469 0.16665,0.81874 -0.4583,1.69463 -1.38924,1.9445 l -27.42138,7.35005 z"
         style="opacity:0.6;fill:#151616" />
      <path
         id="path2998"
         d="m 400.49525,503.44977 c 0.0534,-0.98223 -0.69396,-1.78767 -1.65744,-1.78767 l -32.35076,0 c -0.96347,0 -1.62749,0.79482 -1.47647,1.76773 l 1.33586,8.57682 c 0.15233,0.97158 1.06243,1.72253 2.02591,1.66672 l 29.93033,-1.72521 c 0.96219,-0.0545 1.79156,-0.9038 1.84494,-1.88602 l 0.34763,-6.61237 z"
         style="opacity:0.6;fill:#151616" />
      <path
         id="path3000"
         d="m 430.55709,505.8289 c 0.95957,0.097 1.8306,-0.62204 1.93737,-1.59894 l 5.18717,-47.73805 c 0.10549,-0.97823 -0.53383,-2.09336 -1.42178,-2.47748 l -17.19941,-7.47498 c -0.88666,-0.38544 -2.10142,-0.0704 -2.69904,0.70179 l -9.05019,11.66968 c -0.59891,0.77222 -0.55856,1.99899 0.0885,2.72868 l 2.57015,2.89749 c 0.64709,0.72969 1.07024,1.96178 0.94004,2.73666 -0.1289,0.7762 0.55335,1.37563 1.51553,1.33045 l 15.07193,-0.69247 c 0.96348,-0.0438 1.68739,0.72171 1.60536,1.70392 l -1.74468,21.36298 c -0.0807,0.97955 -0.91921,1.63348 -1.86836,1.45006 l -12.33122,-2.39507 c -0.94786,-0.18475 -2.26549,-0.33627 -2.93341,-0.33627 -0.66663,0 -1.18091,0.80412 -1.14576,1.789 l 0.38409,10.39638 c 0.0364,0.98355 0.8515,1.86741 1.81108,1.96577 l 19.28259,1.9804 z"
         style="opacity:0.6;fill:#151616" />
      <path
         id="path3004"
         d="m 426.83815,497.71043 -10.77223,6.67078 c -0.82377,0.51157 -1.68367,0.40005 -1.90718,-0.24448 -0.22569,-0.64786 0.2877,-1.55532 1.13808,-2.01632 l 10.71184,-5.8356"
         style="opacity:0.6;fill:#151616" />
      <path
         id="path3008"
         d="m 366.81743,503.88784 -5.70192,-11.46915 c -0.43682,-0.87716 -1.22162,-1.24696 -1.74533,-0.81779 -0.52374,0.42917 -0.55854,1.47667 -0.0742,2.32626 l 6.08235,10.72641"
         style="opacity:0.6;fill:#151616" />
      <path
         id="path3012"
         d="m 362.95535,496.1158 c -0.12095,-0.36981 -0.92394,-1.72596 -1.31905,-1.32373 -0.56884,0.57072 0.6938,1.84437 0.9592,2.27466"
         style="opacity:0.6;fill:#151616" />
      <path
         id="path3014"
         d="m 419.33608,502.1716 c -0.31164,0.16478 -0.73417,0.97883 -1.13556,0.89494 -0.157,-0.0324 -0.31989,-0.32884 -0.33258,-0.47337 -0.0567,-0.66182 1.03211,-1.14069 1.4596,-1.43016"
         style="opacity:0.6;fill:#151616" />
      <g
         transform="matrix(1.3019983,0,0,1.3291211,344.41167,414.10225)"
         id="g3020"
         style="opacity:0.2">
        <defs
           id="defs3022">
          <rect
             id="SVGID_2_"
             x="16.877001"
             y="77.634003"
             width="25.49"
             height="2.9460001" />
        </defs>
        <clipPath
           id="clipPath3167">
          <use
             height="1052.3622"
             width="744.09448"
             y="0"
             x="0"
             style="overflow:visible"
             xlink:href="#SVGID_2_"
             overflow="visible"
             id="use3169" />
        </clipPath>
        <g
           clip-path="url(#SVGID_3_)"
           id="g3028">
          <defs
             id="defs3030">
            <rect
               id="SVGID_4_"
               x="16.877001"
               y="77.634003"
               width="25.49"
               height="2.9460001" />
          </defs>
          <clipPath
             id="clipPath3174">
            <use
               height="1052.3622"
               width="744.09448"
               y="0"
               x="0"
               style="overflow:visible"
               xlink:href="#SVGID_4_"
               overflow="visible"
               id="use3176" />
          </clipPath>
          <path
             style="fill:#231f20"
             clip-path="url(#SVGID_5_)"
             d="m 42.367,79.107 c 0,0.813 -5.707,1.473 -12.746,1.473 -7.039,0 -12.745,-0.66 -12.745,-1.473 0,-0.814 5.707,-1.474 12.745,-1.474 7.038,0 12.746,0.66 12.746,1.474"
             id="path3036" />
        </g>
      </g>
      <path
         id="path3038"
         d="m 370.22379,508.97093 c -0.93223,0.24988 -1.90352,-0.32164 -2.16002,-1.27196 l -5.94753,-22.07272 c -0.25519,-0.94899 0.28254,-1.98172 1.19524,-2.29805 l 26.5204,-9.15632 c 0.9127,-0.31633 2.1496,0.0585 2.74722,0.82804 l 9.05149,11.67102 c 0.59892,0.77222 0.55856,2.00033 -0.0885,2.73001 l -2.57145,2.89616 c -0.64709,0.72969 -1.24601,1.7757 -1.33195,2.32464 -0.0846,0.55025 -0.90098,0.74031 -1.81498,0.42398 l -15.07974,-5.23674 c -0.9127,-0.31765 -1.24211,0.10498 -0.73303,0.94102 l 3.74064,6.12459 c 0.50908,0.83469 1.71604,1.50723 2.67952,1.49261 l 10.54488,-0.15684 c 0.96478,-0.0147 1.89051,0.64329 2.05846,1.46468 0.16665,0.81875 -0.4583,1.69464 -1.38924,1.94584 l -27.42138,7.35004 z"
         style="fill:#ffc70d" />
      <path
         id="path3040"
         d="m 381.80767,483.48637 c -0.16275,-0.80146 0.34112,-1.5883 1.12753,-1.75577 0.7877,-0.17013 1.55979,0.34823 1.72515,1.14968"
         style="fill:#58595b" />
      <path
         id="path3042"
         d="m 387.35548,482.30345 c -0.16275,-0.80279 0.34112,-1.58963 1.12753,-1.75843 0.78771,-0.16747 1.55979,0.34823 1.72255,1.15235"
         style="fill:#58595b" />
      <path
         id="path3044"
         d="m 375.82238,508.44593 0.2604,10.44291 c 0.0247,0.98355 0.83198,1.81026 1.79546,1.83818 l 2.01158,0.0572 c 0.96348,0.0279 1.78765,-0.2326 1.82932,-0.57685 0.043,-0.34423 -0.67445,-0.87057 -1.59105,-1.17095 l -0.49085,-0.15949 c -0.91921,-0.30039 -1.65745,-1.35039 -1.64053,-2.33394 l 0.1237,-7.78333"
         style="fill:#6a696b;fill-opacity:1" />
      <path
         id="path3046"
         d="m 384.86086,506.52003 0.26169,10.44291 c 0.0247,0.98355 0.83329,1.81026 1.79677,1.83818 l 2.01027,0.0572 c 0.96479,0.0266 1.78765,-0.23259 1.82932,-0.57684 0.0416,-0.34557 -0.67444,-0.8719 -1.59234,-1.17096 l -0.48956,-0.16081 c -0.91921,-0.30039 -1.65744,-1.35039 -1.64051,-2.33394 l 0.12368,-7.78334"
         style="fill:#7a787c;fill-opacity:1" />
      <path
         id="path3048"
         d="m 400.49525,502.25489 c 0.0534,-0.98223 -0.69396,-1.78768 -1.65744,-1.78768 l -32.35076,0 c -0.96347,0 -1.62749,0.79482 -1.47647,1.76641 l 1.33586,8.57815 c 0.15233,0.97159 1.06243,1.72254 2.02591,1.66672 l 29.93033,-1.72521 c 0.96219,-0.0545 1.79156,-0.90512 1.84494,-1.88601 l 0.34763,-6.61238 z"
         style="fill:#c7c8c9;fill-opacity:1" />
      <path
         style="fill:#1c2021;fill-opacity:1;opacity:0.59999999999999998"
         d="m 433.64957,513.6514 c 0.35258,3.3356 0.77041,5.53371 -1.38761,5.50189 l -23.07962,-0.25288 c -1.16933,-0.004 -1.70666,-0.007 -1.54296,-2.38703 l 0.98652,-12.50278 c 0.11011,-1.41628 0.991,-2.57465 1.95641,-2.57368 l 20.52913,0.0189 c 0.96415,0.002 1.82807,1.17059 1.92005,2.59451 l 0.61808,9.60107 0,3e-5 0,-3e-5 z"
         id="path3931"
         sodipodi:nodetypes="ccccccccccc" />
      <path
         style="fill:#5f6065;fill-opacity:1;stroke:none"
         d="m 415.11893,505.87412 -22.65477,-39.06276 1.52301,-0.77737 22.84515,38.67407 -1.71339,1.16606 z"
         id="path3929" />
      <path
         id="path3050"
         d="m 430.55709,504.63401 c 0.95957,0.0957 1.8306,-0.62335 1.93737,-1.60026 l 5.18717,-47.73805 c 0.10549,-0.97823 -0.53383,-2.09336 -1.42178,-2.47748 l -17.19941,-7.47497 c -0.88666,-0.38545 -2.10142,-0.0704 -2.69904,0.70177 l -9.05019,11.66969 c -0.59891,0.77222 -0.55856,1.99899 0.0885,2.72868 l 2.57015,2.89749 c 0.64709,0.72836 1.07024,1.96045 0.94004,2.73533 -0.1289,0.7762 0.55335,1.37563 1.51553,1.33044 l 15.07193,-0.69247 c 0.96348,-0.0438 1.68739,0.72172 1.60536,1.70394 l -1.74597,21.36429 c -0.0808,0.97956 -0.91921,1.63216 -1.86838,1.44874 l -12.33122,-2.39375 c -0.94786,-0.18475 -2.26548,-0.33626 -2.9334,-0.33626 -0.66663,0 -1.18092,0.80411 -1.14576,1.789 l 0.38409,10.39638 c 0.0364,0.98222 0.85151,1.86742 1.81107,1.96577 l 19.2839,1.98172 z"
         style="fill:#090909;fill-opacity:1" />
      <path
         id="path3052"
         d="m 427.13153,454.53146 c 0.16535,-0.80278 -0.34112,-1.58962 -1.12492,-1.7571 -0.78771,-0.16747 -1.55981,0.34691 -1.72516,1.14969"
         style="fill:#58595b" />
      <path
         id="path3054"
         d="m 421.58241,453.34854 c 0.16666,-0.80278 -0.33852,-1.59096 -1.12493,-1.75709 -0.7864,-0.16747 -1.55718,0.34557 -1.72253,1.14968"
         style="fill:#58595b" />
      <path
         id="path3056"
         d="m 427.26954,508.44593 -0.2617,10.44291 c -0.0261,0.98355 -0.83328,1.81026 -1.79676,1.83818 l -2.01289,0.0572 c -0.96217,0.0279 -1.78634,-0.2326 -1.82801,-0.57685 -0.043,-0.34423 0.67445,-0.87057 1.59235,-1.17095 l 0.49346,-0.15949 c 0.91661,-0.30039 1.65483,-1.35039 1.63921,-2.33394 l -0.12368,-7.78333"
         style="fill:#231f20" />
      <path
         id="path3058"
         d="m 418.22846,506.52003 -0.26169,10.44291 c -0.0247,0.98355 -0.83329,1.81026 -1.79677,1.83818 l -2.01288,0.0572 c -0.96218,0.0266 -1.78634,-0.23259 -1.82801,-0.57684 -0.0404,-0.34557 0.67704,-0.8719 1.59364,-1.17096 l 0.49217,-0.16081 c 0.91791,-0.30039 1.65613,-1.35039 1.64181,-2.33394 l -0.12499,-7.78334"
         style="fill:#231f20" />
      <path
         sodipodi:nodetypes="ccccccccccc"
         id="path3060"
         d="m 434.44829,512.21299 c 0.35258,3.07609 0.77041,5.10318 -1.38761,5.07384 l -23.07962,-0.23321 c -1.16933,-0.004 -1.70666,-0.006 -1.54296,-2.20131 l 0.98652,-11.53005 c 0.11011,-1.3061 0.991,-2.37434 1.95641,-2.37345 l 20.52913,0.0174 c 0.96415,0.002 1.82807,1.07952 1.92005,2.39265 l 0.61808,8.8541 0,3e-5 0,-3e-5 z"
         style="fill:#000000;fill-opacity:1" />
      <path
         id="path3062"
         d="m 427.48444,498.70506 -10.7722,6.67077 c -0.82378,0.51156 -1.68297,0.40115 -1.90721,-0.24448 -0.22495,-0.64675 0.28773,-1.55532 1.1381,-2.01632 l 10.71255,-5.83449"
         style="fill:#231f20" />
      <path
         id="path3088"
         d="m 367.6866,503.08953 -5.70191,-11.46915 c -0.43585,-0.87804 -1.22162,-1.24696 -1.74534,-0.81779 -0.52362,0.42731 -0.55756,1.47578 -0.0742,2.32627 l 6.08236,10.7264"
         style="fill:#231f20" />
      <path
         id="path3094"
         d="m 363.82453,495.3175 c -0.12004,-0.37069 -0.92395,-1.72596 -1.31905,-1.32374 -0.56789,0.56984 0.69477,1.84348 0.95919,2.27466"
         style="fill:#231f20" />
      <path
         id="path3096"
         d="m 419.98312,503.16733 c -0.31238,0.16368 -0.7342,0.97885 -1.13557,0.89495 -0.15702,-0.0325 -0.31991,-0.32884 -0.33259,-0.47337 -0.056,-0.66073 1.03284,-1.1396 1.46032,-1.42907"
         style="fill:#231f20" />
      <path
         id="path3682"
         d="m 415.11893,503.88942 -22.65477,-39.06276 1.52301,-0.77736 22.84515,38.67406 -1.71339,1.16606 z"
         style="fill:#00ff00;fill-opacity:1;stroke:none" />
    </g>
  </g>
</svg>
