<?xml version="1.0" encoding="UTF-8" standalone="no"?>
<!-- Generator: Adobe Illustrator 14.0.0, SVG Export Plug-In . SVG Version: 6.00 Build 43363)  -->

<svg
   xmlns:dc="http://purl.org/dc/elements/1.1/"
   xmlns:cc="http://creativecommons.org/ns#"
   xmlns:rdf="http://www.w3.org/1999/02/22-rdf-syntax-ns#"
   xmlns:svg="http://www.w3.org/2000/svg"
   xmlns="http://www.w3.org/2000/svg"
   xmlns:xlink="http://www.w3.org/1999/xlink"
   xmlns:sodipodi="http://sodipodi.sourceforge.net/DTD/sodipodi-0.dtd"
   xmlns:inkscape="http://www.inkscape.org/namespaces/inkscape"
   inkscape:export-ydpi="90"
   inkscape:export-xdpi="90"
   inkscape:export-filename="/scratchbox/users/jakub/home/jakub/Projects/Harmattan/Darko/meegotouch/icons/icon-l-contacts.png"
   sodipodi:docname="icon-l-calculator.svg"
   inkscape:version="0.48.1 r9760"
   xml:space="preserve"
   style="enable-background:new 0 0 80 80;"
   viewBox="0 0 80 80"
   height="80px"
   width="80px"
   y="0px"
   x="0px"
   id="icon-l-default-application-layer"
   version="1.1"><sodipodi:namedview
   pagecolor="#ffffff"
   bordercolor="#666666"
   borderopacity="1"
   objecttolerance="10"
   gridtolerance="10"
   guidetolerance="10"
   inkscape:pageopacity="0"
   inkscape:pageshadow="2"
   inkscape:window-width="1421"
   inkscape:window-height="1004"
   id="namedview4480"
   showgrid="false"
   inkscape:zoom="4.5664546"
   inkscape:cx="80.533472"
   inkscape:cy="33.329471"
   inkscape:window-x="153"
   inkscape:window-y="46"
   inkscape:window-maximized="0"
   inkscape:current-layer="icon-l-default-application-layer" /><metadata
   id="metadata4484"><rdf:RDF><cc:Work
       rdf:about=""><dc:format>image/svg+xml</dc:format><dc:type
         rdf:resource="http://purl.org/dc/dcmitype/StillImage" /><dc:title /></cc:Work></rdf:RDF></metadata><defs
   id="defs4482"><linearGradient
   id="linearGradient9927"><stop
     id="stop9929"
     offset="0"
     style="stop-color:#001235;stop-opacity:1;" /><stop
     id="stop9931"
     offset="1"
     style="stop-color:#0e1c80;stop-opacity:1;" /></linearGradient><linearGradient
   id="linearGradient9917"><stop
     id="stop9919"
     offset="0"
     style="stop-color:#709cf1;stop-opacity:1;" /><stop
     id="stop9921"
     offset="1"
     style="stop-color:#000529;stop-opacity:1;" /></linearGradient><linearGradient
   id="linearGradient9879"><stop
     style="stop-color:#709cf1;stop-opacity:1;"
     offset="0"
     id="stop9881" /><stop
     style="stop-color:#000529;stop-opacity:1;"
     offset="1"
     id="stop9883" /></linearGradient><linearGradient
   id="linearGradient8719"><stop
     id="stop8721"
     offset="0"
     style="stop-color:#ffffff;stop-opacity:1;" /><stop
     id="stop8723"
     offset="1"
     style="stop-color:#dcdcdc;stop-opacity:1;" /></linearGradient><linearGradient
   id="linearGradient8711"><stop
     id="stop8713"
     offset="0"
     style="stop-color:#ff8149;stop-opacity:1;" /><stop
     id="stop8715"
     offset="1"
     style="stop-color:#d86004;stop-opacity:1;" /></linearGradient><linearGradient
   id="linearGradient6797"><stop
     style="stop-color:#fff3c5;stop-opacity:1;"
     offset="0"
     id="stop6799" /><stop
     style="stop-color:#fde97c;stop-opacity:1;"
     offset="1"
     id="stop6801" /></linearGradient><linearGradient
   id="linearGradient7344"><stop
     id="stop7346"
     offset="0"
     style="stop-color:#534a4a;stop-opacity:1;" /><stop
     id="stop7348"
     offset="1"
     style="stop-color:#262626;stop-opacity:1;" /></linearGradient><linearGradient
   id="linearGradient6824"><stop
     style="stop-color:#63402a;stop-opacity:1;"
     offset="0"
     id="stop6826" /><stop
     style="stop-color:#a58446;stop-opacity:1;"
     offset="1"
     id="stop6828" /></linearGradient><linearGradient
   id="linearGradient5603"><stop
     id="stop5605"
     offset="0"
     style="stop-color:#dfddde;stop-opacity:1;" /><stop
     id="stop5607"
     offset="1"
     style="stop-color:#121212;stop-opacity:1;" /></linearGradient><inkscape:perspective
   sodipodi:type="inkscape:persp3d"
   inkscape:vp_x="0 : 40 : 1"
   inkscape:vp_y="0 : 1000 : 0"
   inkscape:vp_z="80 : 40 : 1"
   inkscape:persp3d-origin="40 : 26.666667 : 1"
   id="perspective4486" />
	
	
	<linearGradient
   y2="65.9187"
   x2="39.4995"
   y1="0.7837"
   x1="39.4995"
   gradientUnits="userSpaceOnUse"
   id="SVGID_1_">
		<stop
   id="stop4467"
   style="stop-color:#FFFFFF"
   offset="0" />
		<stop
   id="stop4469"
   style="stop-color:#FFFFFF;stop-opacity:0"
   offset="0.7362" />
	</linearGradient>
	
	<linearGradient
   y2="78.7542"
   x2="39.4995"
   y1="0"
   x1="39.4995"
   gradientUnits="userSpaceOnUse"
   id="SVGID_2_">
		<stop
   id="stop4474"
   style="stop-color:#FFFFFF"
   offset="0" />
		<stop
   id="stop4476"
   style="stop-color:#FFFFFF;stop-opacity:0"
   offset="1" />
	</linearGradient>
	

		
		
	<clipPath
   clipPathUnits="userSpaceOnUse"
   id="clipPath5642"><path
     style="fill:#cccccc"
     d="m 164.59929,-47.223025 c 0,29.264 -10.234,39.4999975 -39.5,39.4999975 -29.263979,0 -39.499979,-10.2359975 -39.499979,-39.4999975 0,-29.263999 10.236,-39.5 39.499979,-39.5 29.266,0 39.5,10.236001 39.5,39.5 z"
     id="path5644"
     inkscape:label="#path4462" /></clipPath><inkscape:perspective
   id="perspective5887"
   inkscape:persp3d-origin="0.5 : 0.33333333 : 1"
   inkscape:vp_z="1 : 0.5 : 1"
   inkscape:vp_y="0 : 1000 : 0"
   inkscape:vp_x="0 : 0.5 : 1"
   sodipodi:type="inkscape:persp3d" /><mask
   maskUnits="userSpaceOnUse"
   id="mask5937"><path
     style="fill:#ffffff"
     d="m 80.888774,40.582111 c 0,29.264 -10.234,39.499998 -39.5,39.499998 -29.26398,0 -39.4999797,-10.235998 -39.4999797,-39.499998 0,-29.263999 10.2359997,-39.4999998 39.4999797,-39.4999998 29.266,0 39.5,10.2360008 39.5,39.4999998 z"
     id="path5939"
     inkscape:label="#path4462" /></mask><linearGradient
   inkscape:collect="always"
   xlink:href="#SVGID_1_"
   id="linearGradient3360"
   gradientUnits="userSpaceOnUse"
   gradientTransform="translate(0.96948303,0.70195468)"
   x1="39.4995"
   y1="0.7837"
   x2="39.4995"
   y2="65.9187" /><linearGradient
   inkscape:collect="always"
   xlink:href="#SVGID_2_"
   id="linearGradient3362"
   gradientUnits="userSpaceOnUse"
   gradientTransform="translate(1.7406773,1.1204524)"
   x1="39.4995"
   y1="0"
   x2="39.4995"
   y2="78.7542" /><inkscape:perspective
   id="perspective3445"
   inkscape:persp3d-origin="0.5 : 0.33333333 : 1"
   inkscape:vp_z="1 : 0.5 : 1"
   inkscape:vp_y="0 : 1000 : 0"
   inkscape:vp_x="0 : 0.5 : 1"
   sodipodi:type="inkscape:persp3d" /><linearGradient
   inkscape:collect="always"
   xlink:href="#SVGID_2_-9"
   id="linearGradient3429"
   gradientUnits="userSpaceOnUse"
   gradientTransform="translate(-2.3063136,21.812262)"
   x1="39.4995"
   y1="0"
   x2="39.4995"
   y2="78.754204" /><linearGradient
   y2="78.754204"
   x2="39.4995"
   y1="0"
   x1="39.4995"
   gradientUnits="userSpaceOnUse"
   id="SVGID_2_-9"><stop
     id="stop4474-5"
     style="stop-color:#FFFFFF"
     offset="0" /><stop
     id="stop4476-4"
     style="stop-color:#FFFFFF;stop-opacity:0"
     offset="1" /></linearGradient><linearGradient
   inkscape:collect="always"
   xlink:href="#SVGID_1_-3"
   id="linearGradient3431"
   gradientUnits="userSpaceOnUse"
   gradientTransform="translate(-2.6756496,22.091908)"
   x1="39.4995"
   y1="0.78369999"
   x2="39.4995"
   y2="65.918701" /><linearGradient
   y2="65.918701"
   x2="39.4995"
   y1="0.78369999"
   x1="39.4995"
   gradientUnits="userSpaceOnUse"
   id="SVGID_1_-3"><stop
     id="stop4467-9"
     style="stop-color:#FFFFFF"
     offset="0" /><stop
     id="stop4469-4"
     style="stop-color:#FFFFFF;stop-opacity:0"
     offset="0.7362" /></linearGradient><linearGradient
   gradientUnits="userSpaceOnUse"
   y2="-23.424488"
   x2="15.657663"
   y1="32.760555"
   x1="40.622326"
   id="linearGradient5611"
   xlink:href="#linearGradient5603"
   inkscape:collect="always" /><linearGradient
   y2="-23.424488"
   x2="15.657663"
   y1="32.760555"
   x1="40.622326"
   gradientUnits="userSpaceOnUse"
   id="linearGradient5631"
   xlink:href="#linearGradient5603"
   inkscape:collect="always" /><linearGradient
   gradientUnits="userSpaceOnUse"
   y2="90.511436"
   x2="39.855865"
   y1="35.326393"
   x1="39.855865"
   id="linearGradient5641"
   xlink:href="#linearGradient5603"
   inkscape:collect="always" /><radialGradient
   gradientUnits="userSpaceOnUse"
   gradientTransform="matrix(1,0,0,0.98333337,0,0.68001683)"
   r="39.417889"
   fy="40.801102"
   fx="40.512829"
   cy="40.801102"
   cx="40.512829"
   id="radialGradient5655"
   xlink:href="#linearGradient5603"
   inkscape:collect="always" /><clipPath
   id="clipPath5668"
   clipPathUnits="userSpaceOnUse"><path
     inkscape:label="#path4462"
     id="path5670"
     d="m 79.975235,41.198969 c 0,29.264 -10.234,39.5 -39.5,39.5 -29.263997,0 -39.49999377,-10.236 -39.49999377,-39.5 0,-29.264004 10.23599677,-39.5000051 39.49999377,-39.5000051 29.266,0 39.5,10.2360011 39.5,39.5000051 z"
     style="fill:#cccccc" /></clipPath><inkscape:perspective
   id="perspective6119"
   inkscape:persp3d-origin="0.5 : 0.33333333 : 1"
   inkscape:vp_z="1 : 0.5 : 1"
   inkscape:vp_y="0 : 1000 : 0"
   inkscape:vp_x="0 : 0.5 : 1"
   sodipodi:type="inkscape:persp3d" /><linearGradient
   id="SVGID_1_-3-9"
   gradientUnits="userSpaceOnUse"
   x1="39.4995"
   y1="0.78369999"
   x2="39.4995"
   y2="65.918701"><stop
     offset="0"
     style="stop-color:#FFFFFF"
     id="stop4467-9-1" /><stop
     offset="0.7362"
     style="stop-color:#FFFFFF;stop-opacity:0"
     id="stop4469-4-3" /></linearGradient><linearGradient
   y2="78.754204"
   x2="39.4995"
   y1="0"
   x1="39.4995"
   gradientTransform="translate(-2.3063136,21.812262)"
   gradientUnits="userSpaceOnUse"
   id="linearGradient3668"
   xlink:href="#SVGID_2_-9-6"
   inkscape:collect="always" /><linearGradient
   id="SVGID_2_-9-6"
   gradientUnits="userSpaceOnUse"
   x1="39.4995"
   y1="0"
   x2="39.4995"
   y2="78.754204"><stop
     offset="0"
     style="stop-color:#FFFFFF"
     id="stop4474-5-4" /><stop
     offset="1"
     style="stop-color:#FFFFFF;stop-opacity:0"
     id="stop4476-4-0" /></linearGradient><linearGradient
   inkscape:collect="always"
   xlink:href="#linearGradient5603"
   id="linearGradient6842"
   x1="-0.062023461"
   y1="40.253628"
   x2="49.115395"
   y2="40.253628"
   gradientUnits="userSpaceOnUse" /><radialGradient
   inkscape:collect="always"
   xlink:href="#linearGradient7344"
   id="radialGradient7342"
   cx="39.855869"
   cy="40.363125"
   fx="39.855869"
   fy="40.363125"
   r="38.549953"
   gradientUnits="userSpaceOnUse"
   gradientTransform="matrix(1.6302956,0.58492432,-0.30758699,0.85730352,-12.705805,-17.552992)" /><inkscape:perspective
   id="perspective7396"
   inkscape:persp3d-origin="0.5 : 0.33333333 : 1"
   inkscape:vp_z="1 : 0.5 : 1"
   inkscape:vp_y="0 : 1000 : 0"
   inkscape:vp_x="0 : 0.5 : 1"
   sodipodi:type="inkscape:persp3d" /><inkscape:perspective
   id="perspective6813"
   inkscape:persp3d-origin="0.5 : 0.33333333 : 1"
   inkscape:vp_z="1 : 0.5 : 1"
   inkscape:vp_y="0 : 1000 : 0"
   inkscape:vp_x="0 : 0.5 : 1"
   sodipodi:type="inkscape:persp3d" /><linearGradient
   y2="65.918701"
   x2="39.4995"
   y1="0.78369999"
   x1="39.4995"
   gradientTransform="translate(105.72354,-1.1208493)"
   gradientUnits="userSpaceOnUse"
   id="linearGradient7259"
   xlink:href="#SVGID_1_-3"
   inkscape:collect="always" /><inkscape:perspective
   id="perspective9250"
   inkscape:persp3d-origin="0.5 : 0.33333333 : 1"
   inkscape:vp_z="1 : 0.5 : 1"
   inkscape:vp_y="0 : 1000 : 0"
   inkscape:vp_x="0 : 0.5 : 1"
   sodipodi:type="inkscape:persp3d" /><linearGradient
   id="linearGradient7344-7"><stop
     id="stop7346-7"
     offset="0"
     style="stop-color:#595959;stop-opacity:1;" /><stop
     id="stop7348-8"
     offset="1"
     style="stop-color:#3a3737;stop-opacity:1;" /></linearGradient><linearGradient
   y2="65.918701"
   x2="39.4995"
   y1="0.78369999"
   x1="39.4995"
   gradientUnits="userSpaceOnUse"
   id="SVGID_1_-3-3"><stop
     id="stop4467-9-8"
     style="stop-color:#FFFFFF"
     offset="0" /><stop
     id="stop4469-4-1"
     style="stop-color:#FFFFFF;stop-opacity:0"
     offset="0.7362" /></linearGradient><linearGradient
   y2="78.754204"
   x2="39.4995"
   y1="0"
   x1="39.4995"
   gradientUnits="userSpaceOnUse"
   id="SVGID_2_-9-3"><stop
     id="stop4474-5-42"
     style="stop-color:#FFFFFF"
     offset="0" /><stop
     id="stop4476-4-1"
     style="stop-color:#FFFFFF;stop-opacity:0"
     offset="1" /></linearGradient><radialGradient
   inkscape:collect="always"
   xlink:href="#linearGradient7344-7"
   id="radialGradient9336"
   gradientUnits="userSpaceOnUse"
   gradientTransform="matrix(0.97678193,0.214236,-0.2217603,1.011088,27.672,-93.637746)"
   cx="31.500809"
   cy="119.35918"
   fx="31.500809"
   fy="119.35918"
   r="39.499996" /><radialGradient
   inkscape:collect="always"
   xlink:href="#linearGradient5603"
   id="radialGradient9889"
   gradientUnits="userSpaceOnUse"
   gradientTransform="matrix(-1.1532346,-0.94204005,0.63262798,-0.77445584,55.011522,104.2448)"
   cx="29.470854"
   cy="20.770115"
   fx="29.470854"
   fy="20.770115"
   r="11.390625" /><radialGradient
   inkscape:collect="always"
   xlink:href="#linearGradient9879"
   id="radialGradient9891"
   gradientUnits="userSpaceOnUse"
   cx="27.217808"
   cy="26.12402"
   fx="27.217808"
   fy="26.12402"
   r="11.38739" /><radialGradient
   inkscape:collect="always"
   xlink:href="#linearGradient5603"
   id="radialGradient9897"
   gradientUnits="userSpaceOnUse"
   gradientTransform="matrix(-1.1532346,-0.94204005,0.63262798,-0.77445584,82.385056,75.447843)"
   cx="29.470854"
   cy="20.770115"
   fx="29.470854"
   fy="20.770115"
   r="11.390625" /><radialGradient
   inkscape:collect="always"
   xlink:href="#linearGradient9879"
   id="radialGradient9899"
   gradientUnits="userSpaceOnUse"
   cx="27.217808"
   cy="26.12402"
   fx="27.217808"
   fy="26.12402"
   r="11.38739" /><radialGradient
   inkscape:collect="always"
   xlink:href="#linearGradient5603"
   id="radialGradient9905"
   gradientUnits="userSpaceOnUse"
   gradientTransform="matrix(-1.1532346,-0.94204005,0.63262798,-0.77445584,82.385056,104.2448)"
   cx="29.470854"
   cy="20.770115"
   fx="29.470854"
   fy="20.770115"
   r="11.390625" /><radialGradient
   inkscape:collect="always"
   xlink:href="#linearGradient9917"
   id="radialGradient9907"
   gradientUnits="userSpaceOnUse"
   cx="27.217808"
   cy="26.12402"
   fx="27.217808"
   fy="26.12402"
   r="11.38739" /><radialGradient
   inkscape:collect="always"
   xlink:href="#linearGradient9879"
   id="radialGradient9913"
   gradientUnits="userSpaceOnUse"
   cx="25.69949"
   cy="24.099594"
   fx="25.69949"
   fy="24.099594"
   r="11.38739" /><radialGradient
   inkscape:collect="always"
   xlink:href="#linearGradient5603"
   id="radialGradient9915"
   gradientUnits="userSpaceOnUse"
   gradientTransform="matrix(-1.1532346,-0.94204005,0.63262798,-0.77445584,55.011522,75.447846)"
   cx="29.470854"
   cy="20.770115"
   fx="29.470854"
   fy="20.770115"
   r="11.390625" /><radialGradient
   inkscape:collect="always"
   xlink:href="#linearGradient9927"
   id="radialGradient9925"
   gradientUnits="userSpaceOnUse"
   cx="30.001392"
   cy="29.41371"
   fx="30.001392"
   fy="29.41371"
   r="11.38739" /><radialGradient
   inkscape:collect="always"
   xlink:href="#linearGradient5603"
   id="radialGradient9960"
   gradientUnits="userSpaceOnUse"
   gradientTransform="matrix(-1.1532346,-0.94204005,0.63262798,-0.77445584,55.011522,75.447846)"
   cx="29.470854"
   cy="20.770115"
   fx="29.470854"
   fy="20.770115"
   r="11.390625" /><radialGradient
   inkscape:collect="always"
   xlink:href="#linearGradient9879"
   id="radialGradient9962"
   gradientUnits="userSpaceOnUse"
   cx="25.69949"
   cy="24.099594"
   fx="25.69949"
   fy="24.099594"
   r="11.38739" /><radialGradient
   inkscape:collect="always"
   xlink:href="#linearGradient9927"
   id="radialGradient9964"
   gradientUnits="userSpaceOnUse"
   cx="30.001392"
   cy="29.41371"
   fx="30.001392"
   fy="29.41371"
   r="11.38739" /><radialGradient
   inkscape:collect="always"
   xlink:href="#linearGradient5603"
   id="radialGradient9974"
   gradientUnits="userSpaceOnUse"
   gradientTransform="matrix(-1.1532346,-0.94204005,0.63262798,-0.77445584,55.011522,75.447846)"
   cx="29.470854"
   cy="20.770115"
   fx="29.470854"
   fy="20.770115"
   r="11.390625" /><radialGradient
   inkscape:collect="always"
   xlink:href="#linearGradient9879"
   id="radialGradient9976"
   gradientUnits="userSpaceOnUse"
   cx="25.69949"
   cy="24.099594"
   fx="25.69949"
   fy="24.099594"
   r="11.38739" /><radialGradient
   inkscape:collect="always"
   xlink:href="#linearGradient9927"
   id="radialGradient9978"
   gradientUnits="userSpaceOnUse"
   cx="30.001392"
   cy="29.41371"
   fx="30.001392"
   fy="29.41371"
   r="11.38739" /><radialGradient
   inkscape:collect="always"
   xlink:href="#linearGradient5603"
   id="radialGradient9983"
   gradientUnits="userSpaceOnUse"
   gradientTransform="matrix(-1.1532346,-0.94204005,0.63262798,-0.77445584,122.24092,73.257963)"
   cx="29.470854"
   cy="20.770115"
   fx="29.470854"
   fy="20.770115"
   r="11.390625" /><radialGradient
   inkscape:collect="always"
   xlink:href="#linearGradient9879"
   id="radialGradient9991"
   gradientUnits="userSpaceOnUse"
   cx="25.69949"
   cy="24.099594"
   fx="25.69949"
   fy="24.099594"
   r="11.38739" /><radialGradient
   inkscape:collect="always"
   xlink:href="#linearGradient9927"
   id="radialGradient9993"
   gradientUnits="userSpaceOnUse"
   cx="30.001392"
   cy="29.41371"
   fx="30.001392"
   fy="29.41371"
   r="11.38739" /><radialGradient
   inkscape:collect="always"
   xlink:href="#linearGradient9879"
   id="radialGradient10001"
   gradientUnits="userSpaceOnUse"
   cx="25.69949"
   cy="24.099594"
   fx="25.69949"
   fy="24.099594"
   r="11.38739" /><radialGradient
   inkscape:collect="always"
   xlink:href="#linearGradient9927"
   id="radialGradient10003"
   gradientUnits="userSpaceOnUse"
   cx="30.001392"
   cy="29.41371"
   fx="30.001392"
   fy="29.41371"
   r="11.38739" /><radialGradient
   inkscape:collect="always"
   xlink:href="#linearGradient9879"
   id="radialGradient10011"
   gradientUnits="userSpaceOnUse"
   cx="25.69949"
   cy="24.099594"
   fx="25.69949"
   fy="24.099594"
   r="11.38739" /><radialGradient
   inkscape:collect="always"
   xlink:href="#linearGradient9927"
   id="radialGradient10013"
   gradientUnits="userSpaceOnUse"
   cx="30.001392"
   cy="29.41371"
   fx="30.001392"
   fy="29.41371"
   r="11.38739" /><radialGradient
   inkscape:collect="always"
   xlink:href="#linearGradient5603"
   id="radialGradient2982"
   gradientUnits="userSpaceOnUse"
   gradientTransform="matrix(-1.1532346,-0.94204005,0.63262798,-0.77445584,55.011522,75.447846)"
   cx="29.470854"
   cy="20.770115"
   fx="29.470854"
   fy="20.770115"
   r="11.390625" /><radialGradient
   inkscape:collect="always"
   xlink:href="#linearGradient9879"
   id="radialGradient2984"
   gradientUnits="userSpaceOnUse"
   cx="25.69949"
   cy="24.099594"
   fx="25.69949"
   fy="24.099594"
   r="11.38739" /><radialGradient
   inkscape:collect="always"
   xlink:href="#linearGradient9927"
   id="radialGradient2986"
   gradientUnits="userSpaceOnUse"
   cx="30.001392"
   cy="29.41371"
   fx="30.001392"
   fy="29.41371"
   r="11.38739" /><linearGradient
   y2="78.754204"
   x2="39.4995"
   y1="0"
   x1="39.4995"
   gradientTransform="translate(111.38436,-4.9703868)"
   gradientUnits="userSpaceOnUse"
   id="linearGradient3100"
   xlink:href="#SVGID_2_-9"
   inkscape:collect="always" />

<radialGradient
   r="39.499996"
   fy="119.35918"
   fx="31.500809"
   cy="119.35918"
   cx="31.500809"
   gradientTransform="matrix(0.97678193,0.214236,-0.2217603,1.011088,27.453008,-94.294711)"
   gradientUnits="userSpaceOnUse"
   id="radialGradient3135"
   xlink:href="#linearGradient7344-7"
   inkscape:collect="always" /><radialGradient
   r="11.390625"
   fy="20.770115"
   fx="29.470854"
   cy="20.770115"
   cx="29.470854"
   gradientTransform="matrix(-1.1532346,-0.94204005,0.63262798,-0.77445584,55.011522,75.447846)"
   gradientUnits="userSpaceOnUse"
   id="radialGradient3145"
   xlink:href="#linearGradient5603"
   inkscape:collect="always" /><radialGradient
   r="11.38739"
   fy="24.099594"
   fx="25.69949"
   cy="24.099594"
   cx="25.69949"
   gradientUnits="userSpaceOnUse"
   id="radialGradient3147"
   xlink:href="#linearGradient9879"
   inkscape:collect="always" /><radialGradient
   r="11.38739"
   fy="29.41371"
   fx="30.001392"
   cy="29.41371"
   cx="30.001392"
   gradientUnits="userSpaceOnUse"
   id="radialGradient3149"
   xlink:href="#linearGradient9927"
   inkscape:collect="always" /><radialGradient
   r="11.390625"
   fy="20.770115"
   fx="29.470854"
   cy="20.770115"
   cx="29.470854"
   gradientTransform="matrix(-1.1532346,-0.94204005,0.63262798,-0.77445584,55.011522,75.447846)"
   gradientUnits="userSpaceOnUse"
   id="radialGradient3159"
   xlink:href="#linearGradient5603"
   inkscape:collect="always" /><radialGradient
   r="11.38739"
   fy="24.099594"
   fx="25.69949"
   cy="24.099594"
   cx="25.69949"
   gradientUnits="userSpaceOnUse"
   id="radialGradient3161"
   xlink:href="#linearGradient9879"
   inkscape:collect="always" /><radialGradient
   r="11.38739"
   fy="29.41371"
   fx="30.001392"
   cy="29.41371"
   cx="30.001392"
   gradientUnits="userSpaceOnUse"
   id="radialGradient3163"
   xlink:href="#linearGradient9927"
   inkscape:collect="always" /><radialGradient
   r="11.390625"
   fy="20.770115"
   fx="29.470854"
   cy="20.770115"
   cx="29.470854"
   gradientTransform="matrix(-1.1532346,-0.94204005,0.63262798,-0.77445584,55.011522,75.447846)"
   gradientUnits="userSpaceOnUse"
   id="radialGradient3173"
   xlink:href="#linearGradient5603"
   inkscape:collect="always" /><radialGradient
   r="11.38739"
   fy="24.099594"
   fx="25.69949"
   cy="24.099594"
   cx="25.69949"
   gradientUnits="userSpaceOnUse"
   id="radialGradient3175"
   xlink:href="#linearGradient9879"
   inkscape:collect="always" /><radialGradient
   r="11.38739"
   fy="29.41371"
   fx="30.001392"
   cy="29.41371"
   cx="30.001392"
   gradientUnits="userSpaceOnUse"
   id="radialGradient3177"
   xlink:href="#linearGradient9927"
   inkscape:collect="always" /><radialGradient
   r="39.499996"
   fy="119.35918"
   fx="31.500809"
   cy="119.35918"
   cx="31.500809"
   gradientTransform="matrix(0.97678193,0.214236,-0.2217603,1.011088,27.453008,-94.294711)"
   gradientUnits="userSpaceOnUse"
   id="radialGradient3234"
   xlink:href="#linearGradient7344-7"
   inkscape:collect="always" /><radialGradient
   r="11.390625"
   fy="20.770115"
   fx="29.470854"
   cy="20.770115"
   cx="29.470854"
   gradientTransform="matrix(-1.1532346,-0.94204005,0.63262798,-0.77445584,55.011522,75.447846)"
   gradientUnits="userSpaceOnUse"
   id="radialGradient3236"
   xlink:href="#linearGradient5603"
   inkscape:collect="always" /><radialGradient
   r="11.38739"
   fy="24.099594"
   fx="25.69949"
   cy="24.099594"
   cx="25.69949"
   gradientUnits="userSpaceOnUse"
   id="radialGradient3238"
   xlink:href="#linearGradient9879"
   inkscape:collect="always" /><radialGradient
   r="11.38739"
   fy="29.41371"
   fx="30.001392"
   cy="29.41371"
   cx="30.001392"
   gradientUnits="userSpaceOnUse"
   id="radialGradient3240"
   xlink:href="#linearGradient9927"
   inkscape:collect="always" /><radialGradient
   r="11.390625"
   fy="20.770115"
   fx="29.470854"
   cy="20.770115"
   cx="29.470854"
   gradientTransform="matrix(-1.1532346,-0.94204005,0.63262798,-0.77445584,55.011522,75.447846)"
   gradientUnits="userSpaceOnUse"
   id="radialGradient3242"
   xlink:href="#linearGradient5603"
   inkscape:collect="always" /><radialGradient
   r="11.38739"
   fy="24.099594"
   fx="25.69949"
   cy="24.099594"
   cx="25.69949"
   gradientUnits="userSpaceOnUse"
   id="radialGradient3244"
   xlink:href="#linearGradient9879"
   inkscape:collect="always" /><radialGradient
   r="11.38739"
   fy="29.41371"
   fx="30.001392"
   cy="29.41371"
   cx="30.001392"
   gradientUnits="userSpaceOnUse"
   id="radialGradient3246"
   xlink:href="#linearGradient9927"
   inkscape:collect="always" /><radialGradient
   r="11.390625"
   fy="20.770115"
   fx="29.470854"
   cy="20.770115"
   cx="29.470854"
   gradientTransform="matrix(-1.1532346,-0.94204005,0.63262798,-0.77445584,55.011522,75.447846)"
   gradientUnits="userSpaceOnUse"
   id="radialGradient3248"
   xlink:href="#linearGradient5603"
   inkscape:collect="always" /><radialGradient
   r="11.38739"
   fy="24.099594"
   fx="25.69949"
   cy="24.099594"
   cx="25.69949"
   gradientUnits="userSpaceOnUse"
   id="radialGradient3250"
   xlink:href="#linearGradient9879"
   inkscape:collect="always" /><radialGradient
   r="11.38739"
   fy="29.41371"
   fx="30.001392"
   cy="29.41371"
   cx="30.001392"
   gradientUnits="userSpaceOnUse"
   id="radialGradient3252"
   xlink:href="#linearGradient9927"
   inkscape:collect="always" /><radialGradient
   r="11.390625"
   fy="20.770115"
   fx="29.470854"
   cy="20.770115"
   cx="29.470854"
   gradientTransform="matrix(-1.1532346,-0.94204005,0.63262798,-0.77445584,55.011522,75.447846)"
   gradientUnits="userSpaceOnUse"
   id="radialGradient3254"
   xlink:href="#linearGradient5603"
   inkscape:collect="always" /><radialGradient
   r="11.38739"
   fy="24.099594"
   fx="25.69949"
   cy="24.099594"
   cx="25.69949"
   gradientUnits="userSpaceOnUse"
   id="radialGradient3256"
   xlink:href="#linearGradient9879"
   inkscape:collect="always" /><radialGradient
   r="11.38739"
   fy="29.41371"
   fx="30.001392"
   cy="29.41371"
   cx="30.001392"
   gradientUnits="userSpaceOnUse"
   id="radialGradient3258"
   xlink:href="#linearGradient9927"
   inkscape:collect="always" /><linearGradient
   y2="65.918701"
   x2="39.4995"
   y1="0.78369999"
   x1="39.4995"
   gradientTransform="translate(105.72354,-1.1208493)"
   gradientUnits="userSpaceOnUse"
   id="linearGradient3260"
   xlink:href="#SVGID_1_-3"
   inkscape:collect="always" /><linearGradient
   y2="78.754204"
   x2="39.4995"
   y1="0"
   x1="39.4995"
   gradientTransform="translate(111.38436,-4.9703868)"
   gradientUnits="userSpaceOnUse"
   id="linearGradient3262"
   xlink:href="#SVGID_2_-9"
   inkscape:collect="always" /></defs>

<g
   transform="matrix(0.97268406,0,0,0.97268406,-107.11466,6.6305951)"
   id="g3203"><g
     id="g3179"
     transform="translate(111.02705,-5.6936951)"><path
   style="fill:url(#radialGradient3234);fill-opacity:1"
   d="m 79.355858,40.14413 c 0,29.264 -10.234,39.49999 -39.5,39.49999 -29.264,0 -39.49999238,-10.23599 -39.49999238,-39.49999 0,-29.263998 10.23599238,-39.49998711 39.49999238,-39.49998711 29.266,0 39.5,10.23598911 39.5,39.49998711 z"
   id="path7412"
   inkscape:label="#path4462"
   inkscape:connector-curvature="0" /><g
   transform="matrix(1.2403163,0,0,1.2403163,-7.7917822,-7.2594421)"
   id="g9947"><path
     id="path9338"
     d="m 26.484256,15.172233 c -6.289082,0 -11.375,5.117168 -11.375,11.40625 0,6.289082 5.085918,11.375 11.375,11.375 6.289082,0 11.40625,-5.085918 11.40625,-11.375 0,-6.289082 -5.117168,-11.40625 -11.40625,-11.40625 z m 0,1.53125 c 5.442475,0 9.875,4.432525 9.875,9.875 0,5.442475 -4.432525,9.84375 -9.875,9.84375 -5.442475,0 -9.84375,-4.401275 -9.84375,-9.84375 0,-5.442475 4.401275,-9.875 9.84375,-9.875 z"
     style="fill:url(#radialGradient3236);fill-opacity:1;fill-rule:nonzero;stroke:none"
     inkscape:connector-curvature="0" /><path
     transform="matrix(0.86538462,0,0,0.86538462,0.53713745,1.1086856)"
     d="m 41.388783,29.41371 c 0,6.289082 -5.098309,11.38739 -11.387391,11.38739 -6.289082,0 -11.38739,-5.098308 -11.38739,-11.38739 0,-6.289082 5.098308,-11.38739 11.38739,-11.38739 6.289082,0 11.387391,5.098308 11.387391,11.38739 z"
     sodipodi:ry="11.38739"
     sodipodi:rx="11.38739"
     sodipodi:cy="29.41371"
     sodipodi:cx="30.001392"
     id="path9860"
     style="fill:url(#radialGradient3238);fill-opacity:1;fill-rule:nonzero;stroke:none"
     sodipodi:type="arc" /><path
     sodipodi:type="arc"
     style="fill:url(#radialGradient3240);fill-opacity:1;fill-rule:nonzero;stroke:none"
     id="path9923"
     sodipodi:cx="30.001392"
     sodipodi:cy="29.41371"
     sodipodi:rx="11.38739"
     sodipodi:ry="11.38739"
     d="m 41.388783,29.41371 c 0,6.289082 -5.098309,11.38739 -11.387391,11.38739 -6.289082,0 -11.38739,-5.098308 -11.38739,-11.38739 0,-6.289082 5.098308,-11.38739 11.38739,-11.38739 6.289082,0 11.387391,5.098308 11.387391,11.38739 z"
     transform="matrix(0.72115385,0,0,0.72115385,4.8642614,5.3510476)" /></g><path
   id="path9938"
   style="font-size:14px;font-style:normal;font-variant:normal;font-weight:bold;font-stretch:normal;text-align:start;line-height:125%;writing-mode:lr-tb;text-anchor:start;fill:#ffffff;fill-opacity:1;stroke:none;font-family:Sans;-inkscape-font-specification:Sans Bold"
   d="m 25.889929,21.298232 0,3.582031 3.568359,0 0,1.613281 -3.568359,0 0,3.582032 -1.626954,0 0,-3.582032 -3.568359,0 0,-1.613281 3.568359,0 0,-3.582031 1.626954,0"
   inkscape:connector-curvature="0" /><g
   id="g3137"
   transform="matrix(1.2403163,0,0,1.2403163,23.523541,-7.2594421)"><path
     style="fill:url(#radialGradient3242);fill-opacity:1;fill-rule:nonzero;stroke:none"
     d="m 26.484256,15.172233 c -6.289082,0 -11.375,5.117168 -11.375,11.40625 0,6.289082 5.085918,11.375 11.375,11.375 6.289082,0 11.40625,-5.085918 11.40625,-11.375 0,-6.289082 -5.117168,-11.40625 -11.40625,-11.40625 z m 0,1.53125 c 5.442475,0 9.875,4.432525 9.875,9.875 0,5.442475 -4.432525,9.84375 -9.875,9.84375 -5.442475,0 -9.84375,-4.401275 -9.84375,-9.84375 0,-5.442475 4.401275,-9.875 9.84375,-9.875 z"
     id="path3139"
     inkscape:connector-curvature="0" /><path
     sodipodi:type="arc"
     style="fill:url(#radialGradient3244);fill-opacity:1;fill-rule:nonzero;stroke:none"
     id="path3141"
     sodipodi:cx="30.001392"
     sodipodi:cy="29.41371"
     sodipodi:rx="11.38739"
     sodipodi:ry="11.38739"
     d="m 41.388783,29.41371 c 0,6.289082 -5.098309,11.38739 -11.387391,11.38739 -6.289082,0 -11.38739,-5.098308 -11.38739,-11.38739 0,-6.289082 5.098308,-11.38739 11.38739,-11.38739 6.289082,0 11.387391,5.098308 11.387391,11.38739 z"
     transform="matrix(0.86538462,0,0,0.86538462,0.53713745,1.1086856)" /><path
     transform="matrix(0.72115385,0,0,0.72115385,4.8642614,5.3510476)"
     d="m 41.388783,29.41371 c 0,6.289082 -5.098309,11.38739 -11.387391,11.38739 -6.289082,0 -11.38739,-5.098308 -11.38739,-11.38739 0,-6.289082 5.098308,-11.38739 11.38739,-11.38739 6.289082,0 11.387391,5.098308 11.387391,11.38739 z"
     sodipodi:ry="11.38739"
     sodipodi:rx="11.38739"
     sodipodi:cy="29.41371"
     sodipodi:cx="30.001392"
     id="path3143"
     style="fill:url(#radialGradient3246);fill-opacity:1;fill-rule:nonzero;stroke:none"
     sodipodi:type="arc" /></g><g
   transform="matrix(1.2403163,0,0,1.2403163,23.523541,23.617904)"
   id="g3151"><path
     id="path3153"
     d="m 26.484256,15.172233 c -6.289082,0 -11.375,5.117168 -11.375,11.40625 0,6.289082 5.085918,11.375 11.375,11.375 6.289082,0 11.40625,-5.085918 11.40625,-11.375 0,-6.289082 -5.117168,-11.40625 -11.40625,-11.40625 z m 0,1.53125 c 5.442475,0 9.875,4.432525 9.875,9.875 0,5.442475 -4.432525,9.84375 -9.875,9.84375 -5.442475,0 -9.84375,-4.401275 -9.84375,-9.84375 0,-5.442475 4.401275,-9.875 9.84375,-9.875 z"
     style="fill:url(#radialGradient3248);fill-opacity:1;fill-rule:nonzero;stroke:none"
     inkscape:connector-curvature="0" /><path
     transform="matrix(0.86538462,0,0,0.86538462,0.53713745,1.1086856)"
     d="m 41.388783,29.41371 c 0,6.289082 -5.098309,11.38739 -11.387391,11.38739 -6.289082,0 -11.38739,-5.098308 -11.38739,-11.38739 0,-6.289082 5.098308,-11.38739 11.38739,-11.38739 6.289082,0 11.387391,5.098308 11.387391,11.38739 z"
     sodipodi:ry="11.38739"
     sodipodi:rx="11.38739"
     sodipodi:cy="29.41371"
     sodipodi:cx="30.001392"
     id="path3155"
     style="fill:url(#radialGradient3250);fill-opacity:1;fill-rule:nonzero;stroke:none"
     sodipodi:type="arc" /><path
     sodipodi:type="arc"
     style="fill:url(#radialGradient3252);fill-opacity:1;fill-rule:nonzero;stroke:none"
     id="path3157"
     sodipodi:cx="30.001392"
     sodipodi:cy="29.41371"
     sodipodi:rx="11.38739"
     sodipodi:ry="11.38739"
     d="m 41.388783,29.41371 c 0,6.289082 -5.098309,11.38739 -11.387391,11.38739 -6.289082,0 -11.38739,-5.098308 -11.38739,-11.38739 0,-6.289082 5.098308,-11.38739 11.38739,-11.38739 6.289082,0 11.387391,5.098308 11.387391,11.38739 z"
     transform="matrix(0.72115385,0,0,0.72115385,4.8642614,5.3510476)" /></g><g
   id="g3165"
   transform="matrix(1.2403163,0,0,1.2403163,-7.7917822,23.617904)"><path
     style="fill:url(#radialGradient3254);fill-opacity:1;fill-rule:nonzero;stroke:none"
     d="m 26.484256,15.172233 c -6.289082,0 -11.375,5.117168 -11.375,11.40625 0,6.289082 5.085918,11.375 11.375,11.375 6.289082,0 11.40625,-5.085918 11.40625,-11.375 0,-6.289082 -5.117168,-11.40625 -11.40625,-11.40625 z m 0,1.53125 c 5.442475,0 9.875,4.432525 9.875,9.875 0,5.442475 -4.432525,9.84375 -9.875,9.84375 -5.442475,0 -9.84375,-4.401275 -9.84375,-9.84375 0,-5.442475 4.401275,-9.875 9.84375,-9.875 z"
     id="path3167"
     inkscape:connector-curvature="0" /><path
     sodipodi:type="arc"
     style="fill:url(#radialGradient3256);fill-opacity:1;fill-rule:nonzero;stroke:none"
     id="path3169"
     sodipodi:cx="30.001392"
     sodipodi:cy="29.41371"
     sodipodi:rx="11.38739"
     sodipodi:ry="11.38739"
     d="m 41.388783,29.41371 c 0,6.289082 -5.098309,11.38739 -11.387391,11.38739 -6.289082,0 -11.38739,-5.098308 -11.38739,-11.38739 0,-6.289082 5.098308,-11.38739 11.38739,-11.38739 6.289082,0 11.387391,5.098308 11.387391,11.38739 z"
     transform="matrix(0.86538462,0,0,0.86538462,0.53713745,1.1086856)" /><path
     transform="matrix(0.72115385,0,0,0.72115385,4.8642614,5.3510476)"
     d="m 41.388783,29.41371 c 0,6.289082 -5.098309,11.38739 -11.387391,11.38739 -6.289082,0 -11.38739,-5.098308 -11.38739,-11.38739 0,-6.289082 5.098308,-11.38739 11.38739,-11.38739 6.289082,0 11.387391,5.098308 11.387391,11.38739 z"
     sodipodi:ry="11.38739"
     sodipodi:rx="11.38739"
     sodipodi:cy="29.41371"
     sodipodi:cx="30.001392"
     id="path3171"
     style="fill:url(#radialGradient3258);fill-opacity:1;fill-rule:nonzero;stroke:none"
     sodipodi:type="arc" /></g><path
   id="path9940"
   style="font-size:14px;font-style:normal;font-variant:normal;font-weight:bold;font-stretch:normal;text-align:start;line-height:125%;writing-mode:lr-tb;text-anchor:start;fill:#ffffff;fill-opacity:1;stroke:none;font-family:Sans;-inkscape-font-specification:Sans Bold"
   d="m 54.245291,24.692275 4.292969,0 0,1.989257 -4.292969,0 0,-1.989257"
   inkscape:connector-curvature="0" /><path
   id="path9942"
   style="font-size:14px;font-style:normal;font-variant:normal;font-weight:bold;font-stretch:normal;text-align:start;line-height:125%;writing-mode:lr-tb;text-anchor:start;fill:#ffffff;fill-opacity:1;stroke:none;font-family:Sans;-inkscape-font-specification:Sans Bold"
   d="m 52.00994,54.199015 8.763671,0 0,1.606446 -8.763671,0 0,-1.606446 m 0,3.110352 8.763671,0 0,1.620117 -8.763671,0 0,-1.620117"
   inkscape:connector-curvature="0" /><text
   xml:space="preserve"
   style="font-size:40px;font-style:normal;font-weight:normal;line-height:125%;fill:#000000;fill-opacity:1;stroke:none;font-family:Bitstream Vera Sans"
   x="21.415808"
   y="63.704388"
   id="text10015"
   sodipodi:linespacing="125%"><tspan
     sodipodi:role="line"
     id="tspan10017"
     x="21.415808"
     y="63.704388"
     style="font-size:14px;font-style:normal;font-variant:normal;font-weight:bold;font-stretch:normal;text-align:start;line-height:125%;writing-mode:lr-tb;text-anchor:start;fill:#ffffff;font-family:Sans;-inkscape-font-specification:Sans Bold">*</tspan></text>


</g><g
     id="g5960"
     transform="translate(6.6054051,-4.6648328)"><path
       id="path4471"
       d="m 184.72353,38.37915 c 0,29.264 -10.23399,39.500002 -39.5,39.500002 -29.26399,0 -39.49999,-10.236002 -39.49999,-39.500002 0,-29.2639997 10.236,-39.4999993 39.49999,-39.4999993 29.266,0 39.5,10.2359996 39.5,39.4999993 z"
       style="opacity:0.2;fill:url(#linearGradient3260)"
       inkscape:connector-curvature="0" /></g><path
     style="opacity:0.5"
     d="m 150.66026,73.615061 c -29.09399,0 -39.37599,-10.125 -39.49399,-39 -10e-4,0.169 -0.006,0.33 -0.006,0.5 0,29.264 10.236,39.5 39.49999,39.5 29.266,0 39.5,-10.236 39.5,-39.5 0,-0.17 -0.005,-0.331 -0.006,-0.5 -0.118,28.875 -10.398,39 -39.494,39 z"
     id="path4464"
     inkscape:connector-curvature="0" /><path
     style="opacity:0.25;fill:url(#linearGradient3262)"
     d="m 150.88436,-4.9703868 c -29.264,0 -39.5,10.236 -39.5,39.4999998 0,29.264 10.236,39.499998 39.5,39.499998 29.266,0 39.5,-10.235998 39.5,-39.499998 0,-29.2639998 -10.234,-39.4999998 -39.5,-39.4999998 z m 0,77.9999998 c -28.785,0 -38.5,-9.715 -38.5,-38.5 0,-28.7849998 9.715,-38.4999998 38.5,-38.4999998 28.78499,0 38.5,9.715 38.5,38.4999998 0,28.785 -9.71501,38.5 -38.5,38.5 z"
     id="path4478"
     inkscape:connector-curvature="0" /></g>
</svg>