<?xml version="1.0" encoding="UTF-8" standalone="no"?>
<!-- Generator: Adobe Illustrator 14.0.0, SVG Export Plug-In . SVG Version: 6.00 Build 43363)  -->

<svg
   xmlns:dc="http://purl.org/dc/elements/1.1/"
   xmlns:cc="http://creativecommons.org/ns#"
   xmlns:rdf="http://www.w3.org/1999/02/22-rdf-syntax-ns#"
   xmlns:svg="http://www.w3.org/2000/svg"
   xmlns="http://www.w3.org/2000/svg"
   xmlns:xlink="http://www.w3.org/1999/xlink"
   xmlns:sodipodi="http://sodipodi.sourceforge.net/DTD/sodipodi-0.dtd"
   xmlns:inkscape="http://www.inkscape.org/namespaces/inkscape"
   inkscape:export-ydpi="90"
   inkscape:export-xdpi="90"
   inkscape:export-filename="/scratchbox/users/jakub/home/jakub/Projects/Harmattan/Darko/meegotouch/icons/icon-l-contacts.png"
   sodipodi:docname="icons-Applications-browser.svg"
   inkscape:version="0.48.1 r9760"
   xml:space="preserve"
   style="enable-background:new 0 0 80 80;"
   viewBox="0 0 80 80"
   height="80px"
   width="80px"
   y="0px"
   x="0px"
   id="icon-l-default-application-layer"
   version="1.1"><sodipodi:namedview
   pagecolor="#ffffff"
   bordercolor="#666666"
   borderopacity="1"
   objecttolerance="10"
   gridtolerance="10"
   guidetolerance="10"
   inkscape:pageopacity="0"
   inkscape:pageshadow="2"
   inkscape:window-width="1421"
   inkscape:window-height="1004"
   id="namedview4480"
   showgrid="false"
   inkscape:zoom="6.2852432"
   inkscape:cx="66.439614"
   inkscape:cy="17.430771"
   inkscape:window-x="197"
   inkscape:window-y="24"
   inkscape:window-maximized="0"
   inkscape:current-layer="icon-l-default-application-layer"
   showguides="true"
   inkscape:guide-bbox="true"><sodipodi:guide
     orientation="0,1"
     position="45.518137,82.429903"
     id="guide5342" /></sodipodi:namedview><metadata
   id="metadata4484"><rdf:RDF><cc:Work
       rdf:about=""><dc:format>image/svg+xml</dc:format><dc:type
         rdf:resource="http://purl.org/dc/dcmitype/StillImage" /><dc:title /></cc:Work></rdf:RDF></metadata><defs
   id="defs4482"><linearGradient
   id="linearGradient5334"><stop
     style="stop-color:#7ebef1;stop-opacity:1;"
     offset="0"
     id="stop5336" /><stop
     style="stop-color:#4787f7;stop-opacity:1;"
     offset="1"
     id="stop5338" /></linearGradient><linearGradient
   id="linearGradient9927"><stop
     id="stop9929"
     offset="0"
     style="stop-color:#001235;stop-opacity:1;" /><stop
     id="stop9931"
     offset="1"
     style="stop-color:#0e1c80;stop-opacity:1;" /></linearGradient><linearGradient
   id="linearGradient9917"><stop
     id="stop9919"
     offset="0"
     style="stop-color:#709cf1;stop-opacity:1;" /><stop
     id="stop9921"
     offset="1"
     style="stop-color:#000529;stop-opacity:1;" /></linearGradient><linearGradient
   id="linearGradient9879"><stop
     style="stop-color:#3ba7d2;stop-opacity:1;"
     offset="0"
     id="stop9881" /><stop
     style="stop-color:#060c66;stop-opacity:1;"
     offset="1"
     id="stop9883" /></linearGradient><linearGradient
   id="linearGradient8719"><stop
     id="stop8721"
     offset="0"
     style="stop-color:#ffffff;stop-opacity:1;" /><stop
     id="stop8723"
     offset="1"
     style="stop-color:#dcdcdc;stop-opacity:1;" /></linearGradient><linearGradient
   id="linearGradient8711"><stop
     id="stop8713"
     offset="0"
     style="stop-color:#ff8149;stop-opacity:1;" /><stop
     id="stop8715"
     offset="1"
     style="stop-color:#d86004;stop-opacity:1;" /></linearGradient><linearGradient
   id="linearGradient6797"><stop
     style="stop-color:#fff3c5;stop-opacity:1;"
     offset="0"
     id="stop6799" /><stop
     style="stop-color:#fde97c;stop-opacity:1;"
     offset="1"
     id="stop6801" /></linearGradient><linearGradient
   id="linearGradient7344"><stop
     id="stop7346"
     offset="0"
     style="stop-color:#373333;stop-opacity:1;" /><stop
     id="stop7348"
     offset="1"
     style="stop-color:#000000;stop-opacity:1;" /></linearGradient><linearGradient
   id="linearGradient6824"><stop
     style="stop-color:#63402a;stop-opacity:1;"
     offset="0"
     id="stop6826" /><stop
     style="stop-color:#a58446;stop-opacity:1;"
     offset="1"
     id="stop6828" /></linearGradient><linearGradient
   id="linearGradient5603"><stop
     id="stop5605"
     offset="0"
     style="stop-color:#dfddde;stop-opacity:1;" /><stop
     id="stop5607"
     offset="1"
     style="stop-color:#121212;stop-opacity:1;" /></linearGradient><inkscape:perspective
   sodipodi:type="inkscape:persp3d"
   inkscape:vp_x="0 : 40 : 1"
   inkscape:vp_y="0 : 1000 : 0"
   inkscape:vp_z="80 : 40 : 1"
   inkscape:persp3d-origin="40 : 26.666667 : 1"
   id="perspective4486" />
	
	
	<linearGradient
   y2="65.9187"
   x2="39.4995"
   y1="0.7837"
   x1="39.4995"
   gradientUnits="userSpaceOnUse"
   id="SVGID_1_">
		<stop
   id="stop4467"
   style="stop-color:#FFFFFF"
   offset="0" />
		<stop
   id="stop4469"
   style="stop-color:#FFFFFF;stop-opacity:0"
   offset="0.7362" />
	</linearGradient>
	
	<linearGradient
   y2="78.7542"
   x2="39.4995"
   y1="0"
   x1="39.4995"
   gradientUnits="userSpaceOnUse"
   id="SVGID_2_">
		<stop
   id="stop4474"
   style="stop-color:#FFFFFF"
   offset="0" />
		<stop
   id="stop4476"
   style="stop-color:#FFFFFF;stop-opacity:0"
   offset="1" />
	</linearGradient>
	

		
		
	<clipPath
   clipPathUnits="userSpaceOnUse"
   id="clipPath5642"><path
     style="fill:#cccccc"
     d="m 164.59929,-47.223025 c 0,29.264 -10.234,39.4999975 -39.5,39.4999975 -29.263979,0 -39.499979,-10.2359975 -39.499979,-39.4999975 0,-29.263999 10.236,-39.5 39.499979,-39.5 29.266,0 39.5,10.236001 39.5,39.5 z"
     id="path5644"
     inkscape:label="#path4462" /></clipPath><inkscape:perspective
   id="perspective5887"
   inkscape:persp3d-origin="0.5 : 0.33333333 : 1"
   inkscape:vp_z="1 : 0.5 : 1"
   inkscape:vp_y="0 : 1000 : 0"
   inkscape:vp_x="0 : 0.5 : 1"
   sodipodi:type="inkscape:persp3d" /><mask
   maskUnits="userSpaceOnUse"
   id="mask5937"><path
     style="fill:#ffffff"
     d="m 80.888774,40.582111 c 0,29.264 -10.234,39.499998 -39.5,39.499998 -29.26398,0 -39.4999797,-10.235998 -39.4999797,-39.499998 0,-29.263999 10.2359997,-39.4999998 39.4999797,-39.4999998 29.266,0 39.5,10.2360008 39.5,39.4999998 z"
     id="path5939"
     inkscape:label="#path4462" /></mask><linearGradient
   inkscape:collect="always"
   xlink:href="#SVGID_1_"
   id="linearGradient3360"
   gradientUnits="userSpaceOnUse"
   gradientTransform="translate(0.96948303,0.70195468)"
   x1="39.4995"
   y1="0.7837"
   x2="39.4995"
   y2="65.9187" /><linearGradient
   inkscape:collect="always"
   xlink:href="#SVGID_2_"
   id="linearGradient3362"
   gradientUnits="userSpaceOnUse"
   gradientTransform="translate(1.7406773,1.1204524)"
   x1="39.4995"
   y1="0"
   x2="39.4995"
   y2="78.7542" /><inkscape:perspective
   id="perspective3445"
   inkscape:persp3d-origin="0.5 : 0.33333333 : 1"
   inkscape:vp_z="1 : 0.5 : 1"
   inkscape:vp_y="0 : 1000 : 0"
   inkscape:vp_x="0 : 0.5 : 1"
   sodipodi:type="inkscape:persp3d" /><linearGradient
   inkscape:collect="always"
   xlink:href="#SVGID_2_-9"
   id="linearGradient3429"
   gradientUnits="userSpaceOnUse"
   gradientTransform="translate(-2.3063136,21.812262)"
   x1="39.4995"
   y1="0"
   x2="39.4995"
   y2="78.754204" /><linearGradient
   y2="78.754204"
   x2="39.4995"
   y1="0"
   x1="39.4995"
   gradientUnits="userSpaceOnUse"
   id="SVGID_2_-9"><stop
     id="stop4474-5"
     style="stop-color:#FFFFFF"
     offset="0" /><stop
     id="stop4476-4"
     style="stop-color:#FFFFFF;stop-opacity:0"
     offset="1" /></linearGradient><linearGradient
   inkscape:collect="always"
   xlink:href="#SVGID_1_-3"
   id="linearGradient3431"
   gradientUnits="userSpaceOnUse"
   gradientTransform="translate(-2.6756496,22.091908)"
   x1="39.4995"
   y1="0.78369999"
   x2="39.4995"
   y2="65.918701" /><linearGradient
   y2="65.918701"
   x2="39.4995"
   y1="0.78369999"
   x1="39.4995"
   gradientUnits="userSpaceOnUse"
   id="SVGID_1_-3"><stop
     id="stop4467-9"
     style="stop-color:#FFFFFF"
     offset="0" /><stop
     id="stop4469-4"
     style="stop-color:#FFFFFF;stop-opacity:0"
     offset="0.7362" /></linearGradient><linearGradient
   gradientUnits="userSpaceOnUse"
   y2="-23.424488"
   x2="15.657663"
   y1="32.760555"
   x1="40.622326"
   id="linearGradient5611"
   xlink:href="#linearGradient5603"
   inkscape:collect="always" /><linearGradient
   y2="-23.424488"
   x2="15.657663"
   y1="32.760555"
   x1="40.622326"
   gradientUnits="userSpaceOnUse"
   id="linearGradient5631"
   xlink:href="#linearGradient5603"
   inkscape:collect="always" /><linearGradient
   gradientUnits="userSpaceOnUse"
   y2="90.511436"
   x2="39.855865"
   y1="35.326393"
   x1="39.855865"
   id="linearGradient5641"
   xlink:href="#linearGradient5603"
   inkscape:collect="always" /><radialGradient
   gradientUnits="userSpaceOnUse"
   gradientTransform="matrix(1,0,0,0.98333337,0,0.68001683)"
   r="39.417889"
   fy="40.801102"
   fx="40.512829"
   cy="40.801102"
   cx="40.512829"
   id="radialGradient5655"
   xlink:href="#linearGradient5603"
   inkscape:collect="always" /><clipPath
   id="clipPath5668"
   clipPathUnits="userSpaceOnUse"><path
     inkscape:label="#path4462"
     id="path5670"
     d="m 79.975235,41.198969 c 0,29.264 -10.234,39.5 -39.5,39.5 -29.263997,0 -39.49999377,-10.236 -39.49999377,-39.5 0,-29.264004 10.23599677,-39.5000051 39.49999377,-39.5000051 29.266,0 39.5,10.2360011 39.5,39.5000051 z"
     style="fill:#cccccc" /></clipPath><inkscape:perspective
   id="perspective6119"
   inkscape:persp3d-origin="0.5 : 0.33333333 : 1"
   inkscape:vp_z="1 : 0.5 : 1"
   inkscape:vp_y="0 : 1000 : 0"
   inkscape:vp_x="0 : 0.5 : 1"
   sodipodi:type="inkscape:persp3d" /><linearGradient
   id="SVGID_1_-3-9"
   gradientUnits="userSpaceOnUse"
   x1="39.4995"
   y1="0.78369999"
   x2="39.4995"
   y2="65.918701"><stop
     offset="0"
     style="stop-color:#FFFFFF"
     id="stop4467-9-1" /><stop
     offset="0.7362"
     style="stop-color:#FFFFFF;stop-opacity:0"
     id="stop4469-4-3" /></linearGradient><linearGradient
   y2="78.754204"
   x2="39.4995"
   y1="0"
   x1="39.4995"
   gradientTransform="translate(-2.3063136,21.812262)"
   gradientUnits="userSpaceOnUse"
   id="linearGradient3668"
   xlink:href="#SVGID_2_-9-6"
   inkscape:collect="always" /><linearGradient
   id="SVGID_2_-9-6"
   gradientUnits="userSpaceOnUse"
   x1="39.4995"
   y1="0"
   x2="39.4995"
   y2="78.754204"><stop
     offset="0"
     style="stop-color:#FFFFFF"
     id="stop4474-5-4" /><stop
     offset="1"
     style="stop-color:#FFFFFF;stop-opacity:0"
     id="stop4476-4-0" /></linearGradient><linearGradient
   inkscape:collect="always"
   xlink:href="#linearGradient5603"
   id="linearGradient6842"
   x1="-0.062023461"
   y1="40.253628"
   x2="49.115395"
   y2="40.253628"
   gradientUnits="userSpaceOnUse" /><radialGradient
   inkscape:collect="always"
   xlink:href="#linearGradient7344"
   id="radialGradient7342"
   cx="39.855869"
   cy="40.363125"
   fx="39.855869"
   fy="40.363125"
   r="38.549953"
   gradientUnits="userSpaceOnUse"
   gradientTransform="matrix(1.6302956,0.58492432,-0.30758699,0.85730352,-12.705805,-17.552992)" /><inkscape:perspective
   id="perspective7396"
   inkscape:persp3d-origin="0.5 : 0.33333333 : 1"
   inkscape:vp_z="1 : 0.5 : 1"
   inkscape:vp_y="0 : 1000 : 0"
   inkscape:vp_x="0 : 0.5 : 1"
   sodipodi:type="inkscape:persp3d" /><inkscape:perspective
   id="perspective6813"
   inkscape:persp3d-origin="0.5 : 0.33333333 : 1"
   inkscape:vp_z="1 : 0.5 : 1"
   inkscape:vp_y="0 : 1000 : 0"
   inkscape:vp_x="0 : 0.5 : 1"
   sodipodi:type="inkscape:persp3d" /><linearGradient
   y2="65.918701"
   x2="39.4995"
   y1="0.78369999"
   x1="39.4995"
   gradientTransform="translate(105.72354,-1.1208493)"
   gradientUnits="userSpaceOnUse"
   id="linearGradient7259"
   xlink:href="#SVGID_1_-3"
   inkscape:collect="always" /><inkscape:perspective
   id="perspective9250"
   inkscape:persp3d-origin="0.5 : 0.33333333 : 1"
   inkscape:vp_z="1 : 0.5 : 1"
   inkscape:vp_y="0 : 1000 : 0"
   inkscape:vp_x="0 : 0.5 : 1"
   sodipodi:type="inkscape:persp3d" /><linearGradient
   id="linearGradient7344-7"><stop
     id="stop7346-7"
     offset="0"
     style="stop-color:#595959;stop-opacity:1;" /><stop
     id="stop7348-8"
     offset="1"
     style="stop-color:#3a3737;stop-opacity:1;" /></linearGradient><linearGradient
   y2="65.918701"
   x2="39.4995"
   y1="0.78369999"
   x1="39.4995"
   gradientUnits="userSpaceOnUse"
   id="SVGID_1_-3-3"><stop
     id="stop4467-9-8"
     style="stop-color:#FFFFFF"
     offset="0" /><stop
     id="stop4469-4-1"
     style="stop-color:#FFFFFF;stop-opacity:0"
     offset="0.7362" /></linearGradient><linearGradient
   y2="78.754204"
   x2="39.4995"
   y1="0"
   x1="39.4995"
   gradientUnits="userSpaceOnUse"
   id="SVGID_2_-9-3"><stop
     id="stop4474-5-42"
     style="stop-color:#FFFFFF"
     offset="0" /><stop
     id="stop4476-4-1"
     style="stop-color:#FFFFFF;stop-opacity:0"
     offset="1" /></linearGradient><radialGradient
   inkscape:collect="always"
   xlink:href="#linearGradient7344-7"
   id="radialGradient9336"
   gradientUnits="userSpaceOnUse"
   gradientTransform="matrix(0.97678193,0.214236,-0.2217603,1.011088,27.672,-93.637746)"
   cx="31.500809"
   cy="119.35918"
   fx="31.500809"
   fy="119.35918"
   r="39.499996" /><radialGradient
   inkscape:collect="always"
   xlink:href="#linearGradient5603"
   id="radialGradient9889"
   gradientUnits="userSpaceOnUse"
   gradientTransform="matrix(-1.1532346,-0.94204005,0.63262798,-0.77445584,55.011522,104.2448)"
   cx="29.470854"
   cy="20.770115"
   fx="29.470854"
   fy="20.770115"
   r="11.390625" /><radialGradient
   inkscape:collect="always"
   xlink:href="#linearGradient9879"
   id="radialGradient9891"
   gradientUnits="userSpaceOnUse"
   cx="27.217808"
   cy="26.12402"
   fx="27.217808"
   fy="26.12402"
   r="11.38739" /><radialGradient
   inkscape:collect="always"
   xlink:href="#linearGradient5603"
   id="radialGradient9897"
   gradientUnits="userSpaceOnUse"
   gradientTransform="matrix(-1.1532346,-0.94204005,0.63262798,-0.77445584,82.385056,75.447843)"
   cx="29.470854"
   cy="20.770115"
   fx="29.470854"
   fy="20.770115"
   r="11.390625" /><radialGradient
   inkscape:collect="always"
   xlink:href="#linearGradient9879"
   id="radialGradient9899"
   gradientUnits="userSpaceOnUse"
   cx="27.217808"
   cy="26.12402"
   fx="27.217808"
   fy="26.12402"
   r="11.38739" /><radialGradient
   inkscape:collect="always"
   xlink:href="#linearGradient5603"
   id="radialGradient9905"
   gradientUnits="userSpaceOnUse"
   gradientTransform="matrix(-1.1532346,-0.94204005,0.63262798,-0.77445584,82.385056,104.2448)"
   cx="29.470854"
   cy="20.770115"
   fx="29.470854"
   fy="20.770115"
   r="11.390625" /><radialGradient
   inkscape:collect="always"
   xlink:href="#linearGradient9917"
   id="radialGradient9907"
   gradientUnits="userSpaceOnUse"
   cx="27.217808"
   cy="26.12402"
   fx="27.217808"
   fy="26.12402"
   r="11.38739" /><radialGradient
   inkscape:collect="always"
   xlink:href="#linearGradient9879"
   id="radialGradient9913"
   gradientUnits="userSpaceOnUse"
   cx="25.69949"
   cy="24.099594"
   fx="25.69949"
   fy="24.099594"
   r="11.38739" /><radialGradient
   inkscape:collect="always"
   xlink:href="#linearGradient5603"
   id="radialGradient9915"
   gradientUnits="userSpaceOnUse"
   gradientTransform="matrix(-1.1532346,-0.94204005,0.63262798,-0.77445584,55.011522,75.447846)"
   cx="29.470854"
   cy="20.770115"
   fx="29.470854"
   fy="20.770115"
   r="11.390625" /><radialGradient
   inkscape:collect="always"
   xlink:href="#linearGradient9927"
   id="radialGradient9925"
   gradientUnits="userSpaceOnUse"
   cx="30.001392"
   cy="29.41371"
   fx="30.001392"
   fy="29.41371"
   r="11.38739" /><radialGradient
   inkscape:collect="always"
   xlink:href="#linearGradient5603"
   id="radialGradient9960"
   gradientUnits="userSpaceOnUse"
   gradientTransform="matrix(-1.1532346,-0.94204005,0.63262798,-0.77445584,55.011522,75.447846)"
   cx="29.470854"
   cy="20.770115"
   fx="29.470854"
   fy="20.770115"
   r="11.390625" /><radialGradient
   inkscape:collect="always"
   xlink:href="#linearGradient9879"
   id="radialGradient9962"
   gradientUnits="userSpaceOnUse"
   cx="25.69949"
   cy="24.099594"
   fx="25.69949"
   fy="24.099594"
   r="11.38739" /><radialGradient
   inkscape:collect="always"
   xlink:href="#linearGradient9927"
   id="radialGradient9964"
   gradientUnits="userSpaceOnUse"
   cx="30.001392"
   cy="29.41371"
   fx="30.001392"
   fy="29.41371"
   r="11.38739" /><radialGradient
   inkscape:collect="always"
   xlink:href="#linearGradient5603"
   id="radialGradient9974"
   gradientUnits="userSpaceOnUse"
   gradientTransform="matrix(-1.1532346,-0.94204005,0.63262798,-0.77445584,55.011522,75.447846)"
   cx="29.470854"
   cy="20.770115"
   fx="29.470854"
   fy="20.770115"
   r="11.390625" /><radialGradient
   inkscape:collect="always"
   xlink:href="#linearGradient9879"
   id="radialGradient9976"
   gradientUnits="userSpaceOnUse"
   cx="25.69949"
   cy="24.099594"
   fx="25.69949"
   fy="24.099594"
   r="11.38739" /><radialGradient
   inkscape:collect="always"
   xlink:href="#linearGradient9927"
   id="radialGradient9978"
   gradientUnits="userSpaceOnUse"
   cx="30.001392"
   cy="29.41371"
   fx="30.001392"
   fy="29.41371"
   r="11.38739" /><radialGradient
   inkscape:collect="always"
   xlink:href="#linearGradient5603"
   id="radialGradient9983"
   gradientUnits="userSpaceOnUse"
   gradientTransform="matrix(-1.1532346,-0.94204005,0.63262798,-0.77445584,122.24092,73.257963)"
   cx="29.470854"
   cy="20.770115"
   fx="29.470854"
   fy="20.770115"
   r="11.390625" /><radialGradient
   inkscape:collect="always"
   xlink:href="#linearGradient9879"
   id="radialGradient9991"
   gradientUnits="userSpaceOnUse"
   cx="25.69949"
   cy="24.099594"
   fx="25.69949"
   fy="24.099594"
   r="11.38739" /><radialGradient
   inkscape:collect="always"
   xlink:href="#linearGradient9927"
   id="radialGradient9993"
   gradientUnits="userSpaceOnUse"
   cx="30.001392"
   cy="29.41371"
   fx="30.001392"
   fy="29.41371"
   r="11.38739" /><radialGradient
   inkscape:collect="always"
   xlink:href="#linearGradient9879"
   id="radialGradient10001"
   gradientUnits="userSpaceOnUse"
   cx="25.69949"
   cy="24.099594"
   fx="25.69949"
   fy="24.099594"
   r="11.38739" /><radialGradient
   inkscape:collect="always"
   xlink:href="#linearGradient9927"
   id="radialGradient10003"
   gradientUnits="userSpaceOnUse"
   cx="30.001392"
   cy="29.41371"
   fx="30.001392"
   fy="29.41371"
   r="11.38739" /><radialGradient
   inkscape:collect="always"
   xlink:href="#linearGradient9879"
   id="radialGradient10011"
   gradientUnits="userSpaceOnUse"
   cx="25.69949"
   cy="24.099594"
   fx="25.69949"
   fy="24.099594"
   r="11.38739" /><radialGradient
   inkscape:collect="always"
   xlink:href="#linearGradient9927"
   id="radialGradient10013"
   gradientUnits="userSpaceOnUse"
   cx="30.001392"
   cy="29.41371"
   fx="30.001392"
   fy="29.41371"
   r="11.38739" /><radialGradient
   inkscape:collect="always"
   xlink:href="#linearGradient5603"
   id="radialGradient2982"
   gradientUnits="userSpaceOnUse"
   gradientTransform="matrix(-1.1532346,-0.94204005,0.63262798,-0.77445584,55.011522,75.447846)"
   cx="29.470854"
   cy="20.770115"
   fx="29.470854"
   fy="20.770115"
   r="11.390625" /><radialGradient
   inkscape:collect="always"
   xlink:href="#linearGradient9879"
   id="radialGradient2984"
   gradientUnits="userSpaceOnUse"
   cx="25.69949"
   cy="24.099594"
   fx="25.69949"
   fy="24.099594"
   r="11.38739" /><radialGradient
   inkscape:collect="always"
   xlink:href="#linearGradient9927"
   id="radialGradient2986"
   gradientUnits="userSpaceOnUse"
   cx="30.001392"
   cy="29.41371"
   fx="30.001392"
   fy="29.41371"
   r="11.38739" /><linearGradient
   y2="78.754204"
   x2="39.4995"
   y1="0"
   x1="39.4995"
   gradientTransform="translate(111.38436,-4.9703868)"
   gradientUnits="userSpaceOnUse"
   id="linearGradient3100"
   xlink:href="#SVGID_2_-9"
   inkscape:collect="always" />

<radialGradient
   r="39.499996"
   fy="119.35918"
   fx="31.500809"
   cy="119.35918"
   cx="31.500809"
   gradientTransform="matrix(0.97678193,0.214236,-0.2217603,1.011088,27.453008,-94.294711)"
   gradientUnits="userSpaceOnUse"
   id="radialGradient3135"
   xlink:href="#linearGradient7344-7"
   inkscape:collect="always" /><radialGradient
   r="11.390625"
   fy="20.770115"
   fx="29.470854"
   cy="20.770115"
   cx="29.470854"
   gradientTransform="matrix(-1.1532346,-0.94204005,0.63262798,-0.77445584,55.011522,75.447846)"
   gradientUnits="userSpaceOnUse"
   id="radialGradient3145"
   xlink:href="#linearGradient5603"
   inkscape:collect="always" /><radialGradient
   r="11.38739"
   fy="24.099594"
   fx="25.69949"
   cy="24.099594"
   cx="25.69949"
   gradientUnits="userSpaceOnUse"
   id="radialGradient3147"
   xlink:href="#linearGradient9879"
   inkscape:collect="always" /><radialGradient
   r="11.38739"
   fy="29.41371"
   fx="30.001392"
   cy="29.41371"
   cx="30.001392"
   gradientUnits="userSpaceOnUse"
   id="radialGradient3149"
   xlink:href="#linearGradient9927"
   inkscape:collect="always" /><radialGradient
   r="11.390625"
   fy="20.770115"
   fx="29.470854"
   cy="20.770115"
   cx="29.470854"
   gradientTransform="matrix(-1.1532346,-0.94204005,0.63262798,-0.77445584,55.011522,75.447846)"
   gradientUnits="userSpaceOnUse"
   id="radialGradient3159"
   xlink:href="#linearGradient5603"
   inkscape:collect="always" /><radialGradient
   r="11.38739"
   fy="24.099594"
   fx="25.69949"
   cy="24.099594"
   cx="25.69949"
   gradientUnits="userSpaceOnUse"
   id="radialGradient3161"
   xlink:href="#linearGradient9879"
   inkscape:collect="always" /><radialGradient
   r="11.38739"
   fy="29.41371"
   fx="30.001392"
   cy="29.41371"
   cx="30.001392"
   gradientUnits="userSpaceOnUse"
   id="radialGradient3163"
   xlink:href="#linearGradient9927"
   inkscape:collect="always" /><radialGradient
   r="11.390625"
   fy="20.770115"
   fx="29.470854"
   cy="20.770115"
   cx="29.470854"
   gradientTransform="matrix(-1.1532346,-0.94204005,0.63262798,-0.77445584,55.011522,75.447846)"
   gradientUnits="userSpaceOnUse"
   id="radialGradient3173"
   xlink:href="#linearGradient5603"
   inkscape:collect="always" /><radialGradient
   r="11.38739"
   fy="24.099594"
   fx="25.69949"
   cy="24.099594"
   cx="25.69949"
   gradientUnits="userSpaceOnUse"
   id="radialGradient3175"
   xlink:href="#linearGradient9879"
   inkscape:collect="always" /><radialGradient
   r="11.38739"
   fy="29.41371"
   fx="30.001392"
   cy="29.41371"
   cx="30.001392"
   gradientUnits="userSpaceOnUse"
   id="radialGradient3177"
   xlink:href="#linearGradient9927"
   inkscape:collect="always" /><linearGradient
   y2="65.918701"
   x2="39.4995"
   y1="0.78369999"
   x1="39.4995"
   gradientTransform="translate(105.72354,-1.1208493)"
   gradientUnits="userSpaceOnUse"
   id="linearGradient3260"
   xlink:href="#SVGID_1_-3"
   inkscape:collect="always" /><linearGradient
   y2="78.754204"
   x2="39.4995"
   y1="0"
   x1="39.4995"
   gradientTransform="translate(111.38436,-4.9703868)"
   gradientUnits="userSpaceOnUse"
   id="linearGradient3262"
   xlink:href="#SVGID_2_-9"
   inkscape:collect="always" /><linearGradient
   inkscape:collect="always"
   xlink:href="#SVGID_2_-9"
   id="linearGradient10307"
   gradientUnits="userSpaceOnUse"
   gradientTransform="matrix(0.97268406,0,0,0.97268406,71.851376,24.483251)"
   x1="39.4995"
   y1="0"
   x2="39.4995"
   y2="78.754204" /><linearGradient
   inkscape:collect="always"
   xlink:href="#SVGID_2_-9"
   id="linearGradient10339"
   gradientUnits="userSpaceOnUse"
   gradientTransform="matrix(0.97268406,0,0,0.97268406,71.851376,24.483251)"
   x1="39.4995"
   y1="0"
   x2="39.4995"
   y2="78.754204" /><linearGradient
   inkscape:collect="always"
   xlink:href="#SVGID_1_-3"
   id="linearGradient10341"
   gradientUnits="userSpaceOnUse"
   gradientTransform="translate(105.72354,-1.1208493)"
   x1="39.4995"
   y1="0.78369999"
   x2="39.4995"
   y2="65.918701" /><linearGradient
   inkscape:collect="always"
   xlink:href="#SVGID_1_-3"
   id="linearGradient10344"
   gradientUnits="userSpaceOnUse"
   gradientTransform="matrix(0.97268406,0,0,0.97268406,57.693043,22.816563)"
   x1="39.4995"
   y1="0.78369999"
   x2="39.4995"
   y2="65.918701" /><linearGradient
   inkscape:collect="always"
   xlink:href="#SVGID_1_-3"
   id="linearGradient10352"
   gradientUnits="userSpaceOnUse"
   gradientTransform="matrix(0.97268406,0,0,0.97268406,57.693043,22.816563)"
   x1="39.4995"
   y1="0.78369999"
   x2="39.4995"
   y2="65.918701" /><linearGradient
   inkscape:collect="always"
   xlink:href="#SVGID_2_-9"
   id="linearGradient10354"
   gradientUnits="userSpaceOnUse"
   gradientTransform="matrix(0.97268406,0,0,0.97268406,71.851376,24.483251)"
   x1="39.4995"
   y1="0"
   x2="39.4995"
   y2="78.754204" />


<radialGradient
   inkscape:collect="always"
   xlink:href="#linearGradient7344-7"
   id="radialGradient7233"
   gradientUnits="userSpaceOnUse"
   gradientTransform="matrix(0.95010021,0.20838394,-0.21570271,0.98346918,27.582685,-90.626534)"
   cx="31.500809"
   cy="119.35918"
   fx="31.500809"
   fy="119.35918"
   r="39.499996" /><linearGradient
   id="linearGradient5832"><stop
     id="stop5834"
     offset="0"
     style="stop-color:#62b54f;stop-opacity:1;" /><stop
     id="stop5836"
     offset="1"
     style="stop-color:#255e04;stop-opacity:1;" /></linearGradient><radialGradient
   inkscape:collect="always"
   xlink:href="#linearGradient7344-7"
   id="radialGradient8792"
   gradientUnits="userSpaceOnUse"
   gradientTransform="matrix(0.95010021,0.20838394,-0.21570271,0.98346918,27.582685,-90.626534)"
   cx="31.500809"
   cy="119.35918"
   fx="31.500809"
   fy="119.35918"
   r="39.499996" /><linearGradient
   inkscape:collect="always"
   xlink:href="#SVGID_1_-3"
   id="linearGradient4497"
   gradientUnits="userSpaceOnUse"
   gradientTransform="matrix(0.97268406,0,0,0.97268406,77.549601,14.266951)"
   x1="39.4995"
   y1="0.78369999"
   x2="39.4995"
   y2="65.918701" /><linearGradient
   inkscape:collect="always"
   xlink:href="#SVGID_2_-9"
   id="linearGradient4499"
   gradientUnits="userSpaceOnUse"
   gradientTransform="matrix(0.97268406,0,0,0.97268406,71.851376,24.483251)"
   x1="39.4995"
   y1="0"
   x2="39.4995"
   y2="78.754204" /><linearGradient
   inkscape:collect="always"
   xlink:href="#SVGID_1_-3"
   id="linearGradient4507"
   gradientUnits="userSpaceOnUse"
   gradientTransform="matrix(0.97268406,0,0,0.97268406,77.549601,14.266951)"
   x1="39.4995"
   y1="0.78369999"
   x2="39.4995"
   y2="65.918701" /><linearGradient
   inkscape:collect="always"
   xlink:href="#SVGID_2_-9"
   id="linearGradient4509"
   gradientUnits="userSpaceOnUse"
   gradientTransform="matrix(0.97268406,0,0,0.97268406,71.851376,24.483251)"
   x1="39.4995"
   y1="0"
   x2="39.4995"
   y2="78.754204" /><radialGradient
   inkscape:collect="always"
   xlink:href="#linearGradient9879"
   id="radialGradient4522"
   gradientUnits="userSpaceOnUse"
   gradientTransform="matrix(0.97642676,0.06707998,-0.07015172,1.0211396,9.7969724,-89.998193)"
   cx="50.3755"
   cy="116.54378"
   fx="50.3755"
   fy="116.54378"
   r="39.499996" /><radialGradient
   inkscape:collect="always"
   xlink:href="#linearGradient9879"
   id="radialGradient5326"
   gradientUnits="userSpaceOnUse"
   gradientTransform="matrix(0.97642676,0.06707998,-0.07015172,1.0211396,9.8894476,-90.19449)"
   cx="50.3755"
   cy="116.54378"
   fx="50.3755"
   fy="116.54378"
   r="39.499996" /><radialGradient
   inkscape:collect="always"
   xlink:href="#linearGradient5334"
   id="radialGradient5340"
   cx="46.090107"
   cy="33.564621"
   fx="46.090107"
   fy="33.564621"
   r="38.421017"
   gradientTransform="matrix(0.96283857,0.10622126,-0.10649083,0.96528223,5.7451841,-2.865825)"
   gradientUnits="userSpaceOnUse" /><radialGradient
   inkscape:collect="always"
   xlink:href="#linearGradient5334"
   id="radialGradient5353"
   gradientUnits="userSpaceOnUse"
   gradientTransform="matrix(0.96283857,0.10622126,-0.10649083,0.96528223,5.7451841,-2.865825)"
   cx="46.090107"
   cy="33.564621"
   fx="46.090107"
   fy="33.564621"
   r="38.421017" /><radialGradient
   inkscape:collect="always"
   xlink:href="#linearGradient9879"
   id="radialGradient5355"
   gradientUnits="userSpaceOnUse"
   gradientTransform="matrix(0.97642676,0.06707998,-0.07015172,1.0211396,9.8894476,-90.19449)"
   cx="50.3755"
   cy="116.54378"
   fx="50.3755"
   fy="116.54378"
   r="39.499996" /><linearGradient
   inkscape:collect="always"
   xlink:href="#SVGID_1_-3"
   id="linearGradient6004"
   gradientUnits="userSpaceOnUse"
   gradientTransform="matrix(0.97268406,0,0,0.97268406,77.549601,14.266951)"
   x1="39.4995"
   y1="0.78369999"
   x2="39.4995"
   y2="65.918701" /><linearGradient
   inkscape:collect="always"
   xlink:href="#SVGID_2_-9"
   id="linearGradient6006"
   gradientUnits="userSpaceOnUse"
   gradientTransform="matrix(0.97268406,0,0,0.97268406,71.851376,24.483251)"
   x1="39.4995"
   y1="0"
   x2="39.4995"
   y2="78.754204" /><radialGradient
   inkscape:collect="always"
   xlink:href="#linearGradient9879"
   id="radialGradient6009"
   gradientUnits="userSpaceOnUse"
   gradientTransform="matrix(0.97642676,0.06707998,-0.07015172,1.0211396,10.169714,-89.957112)"
   cx="50.3755"
   cy="116.54378"
   fx="50.3755"
   fy="116.54378"
   r="39.499996" /><radialGradient
   inkscape:collect="always"
   xlink:href="#linearGradient5334"
   id="radialGradient6017"
   gradientUnits="userSpaceOnUse"
   gradientTransform="matrix(0.96283857,0.10622126,-0.10649083,0.96528223,6.025451,-2.6284475)"
   cx="46.090107"
   cy="33.564621"
   fx="46.090107"
   fy="33.564621"
   r="38.421017" /><radialGradient
   inkscape:collect="always"
   xlink:href="#linearGradient5334"
   id="radialGradient6027"
   gradientUnits="userSpaceOnUse"
   gradientTransform="matrix(0.96283857,0.10622126,-0.10649083,0.96528223,6.025451,-2.6284475)"
   cx="46.090107"
   cy="33.564621"
   fx="46.090107"
   fy="33.564621"
   r="38.421017" /></defs>

<g
   id="g6019"
   transform="translate(-0.77463285,-0.23632968)"><path
     style="fill:url(#radialGradient6027);fill-opacity:1;stroke:none"
     d="m 78.746884,40.212956 c 0,28.46462 -9.954449,38.42101 -38.42102,38.42101 -28.464627,0 -38.4210133,-9.95639 -38.4210133,-38.42101 0,-28.464625 9.9563863,-38.4210094 38.4210133,-38.4210094 28.466571,0 38.42102,9.9563844 38.42102,38.4210094 z"
     id="path5292"
     inkscape:label="#path4462"
     inkscape:connector-curvature="0" /><g
     transform="translate(3.4382285,-80.656594)"
     id="g5307"><path
       style="fill:#303131;fill-opacity:0.99568942;stroke:none"
       d="m 29.261659,102.37656 c 2.10378,0 2.86879,-4.398809 4.97257,-4.398809 2.103779,0 6.311338,-2.103779 5.928833,-5.163822 -0.382506,-3.060043 -0.191253,-7.458854 -2.677538,-7.841359 -2.486284,-0.382506 -7.458854,0.573758 -9.753886,1.147516 -2.295032,0.573758 -6.693844,4.016306 -8.032612,4.207558 -1.338769,0.191253 1.147516,1.912527 3.6338,2.295033 2.486285,0.382505 4.207559,4.016306 4.016307,6.120085 -0.191253,2.103778 1.912526,3.633798 1.912526,3.633798 z"
       id="path5296"
       inkscape:connector-curvature="0" /><path
       style="fill:#303131;fill-opacity:0.99568942;stroke:none"
       d="m 50.873212,114.80799 c -3.825054,0.3825 -6.885097,1.53002 -8.032613,2.86879 -1.147516,1.33877 -2.86879,4.59006 -1.912526,6.50259 0.956263,1.91252 2.295032,4.20756 4.972569,4.20756 2.677538,0 3.825054,-2.67754 5.163822,-0.76501 1.338769,1.91252 0.191253,5.54632 0.956264,7.84136 0.76501,2.29503 0.382505,8.60637 2.486284,8.60637 2.10378,0 4.398812,-0.38251 5.928833,-1.72128 1.530022,-1.33877 2.10378,-5.16382 2.868791,-5.92883 0.76501,-0.76501 0,-2.67754 0,-4.20756 0,-1.53002 2.86879,-2.86879 3.825053,-4.20756 0.956263,-1.33877 0.191253,-2.86879 -0.956263,-2.67754 -1.147516,0.19126 -4.207559,-1.53002 -4.590065,-3.25129 -0.382505,-1.72128 -0.382505,-4.59007 -1.912526,-4.59007 -1.530022,0 -4.398812,1.14752 -6.120086,0 -1.721274,-1.14751 -2.677537,-2.67753 -2.677537,-2.67753 z"
       id="path5298"
       inkscape:connector-curvature="0" /><path
       style="fill:#303131;fill-opacity:0.99568942;stroke:none"
       d="m 69.99848,97.595246 c -2.868791,0.191253 -7.07635,2.486284 -7.841361,2.677534 -0.76501,0.19126 -1.912526,-1.912523 -1.912526,-1.912523 0,0 1.147516,1.147516 2.295032,0.765011 1.147516,-0.382506 3.633801,-0.191253 1.912527,-1.147517 -1.721275,-0.956263 -5.546328,-2.86879 -6.502591,-2.677537 -0.956264,0.191253 -3.825054,0.956263 -4.207559,1.912527 -0.382506,0.956263 -2.677538,3.825049 -3.442548,4.016309 -0.765011,0.19125 -0.191253,3.25129 -0.191253,3.25129 0,0 1.530021,0.19126 2.295032,-0.76501 0.765011,-0.95626 0,2.67754 1.147516,1.91253 1.147516,-0.76501 2.295032,-1.91253 1.721274,-2.67754 -0.573758,-0.76501 0.191253,-2.29503 0.956264,-2.86879 0.76501,-0.573757 2.103779,-0.76501 1.721274,0 -0.382506,0.76501 -1.912527,0.57376 -1.721274,1.33877 0.191252,0.76501 1.338768,1.53002 2.103779,1.53002 0.765011,0 0.382505,0.76501 -0.382505,1.14752 -0.765011,0.3825 -2.295033,1.72127 -3.442549,1.72127 -1.147516,0 -2.486284,-0.19125 -2.486284,-0.19125 0,0 -0.573758,-2.10378 -1.338769,-1.33877 -0.765011,0.76501 2.86879,0.57376 0.382505,1.91253 -2.486284,1.33877 -1.530021,2.67753 -2.677537,2.67753 -1.147516,0 -3.825054,-0.19125 -2.486285,0.19126 1.338769,0.3825 1.912527,2.29503 1.912527,2.29503 0,0 -1.912527,0.95626 -2.677538,0.3825 -0.76501,-0.57375 -0.382505,-0.19125 -0.76501,0.95627 -0.382506,1.14751 -0.191253,1.53002 0.573758,1.91252 0.76501,0.38251 2.103779,0 2.86879,-0.3825 0.765011,-0.38251 0.573758,-2.10378 1.338769,-2.48629 0.76501,-0.3825 0.573758,-0.76501 1.721274,-0.57375 1.147516,0.19125 3.251295,1.33876 3.060042,2.10378 -0.191252,0.76501 1.147516,-0.57376 1.147516,-0.57376 l -2.295032,-2.48629 2.86879,2.48629 1.338769,2.48628 0.573758,-2.29503 c 0,0 0.573758,0.95626 1.338769,1.33877 0.765011,0.3825 3.251295,-0.95626 2.86879,0.57376 -0.382505,1.53002 -1.912527,1.53002 -0.765011,3.25129 1.147516,1.72128 2.868791,6.69385 4.398812,6.31134 1.530021,-0.3825 7.458854,-1.14752 5.928833,-2.48628 -1.530022,-1.33877 -5.546328,-5.16383 -4.207559,-4.59007 1.338769,0.57376 4.781317,2.10378 6.885096,1.91253 2.10378,-0.19125 -4.016305,-21.611554 -4.016305,-21.611554 z"
       id="path5300"
       inkscape:connector-curvature="0"
       sodipodi:nodetypes="cccssssccssssssssscsssscssssssscccccsssssssc" /><path
       style="fill:#303131;fill-opacity:0.99568942;stroke:none"
       d="m 17.021488,125.13563 c 1.530021,-0.19125 3.060043,0.95626 4.207559,0.95626 1.147516,0 2.295032,0.57376 3.633801,1.53003 1.338769,0.95626 3.251295,1.91252 4.590064,2.29503 1.338769,0.3825 5.546328,0.95626 5.163822,2.29503 -0.382505,1.33877 -1.338769,5.54633 -2.677537,6.50259 -1.338769,0.95626 -3.825054,1.91253 -3.825054,1.91253 l -0.956263,2.86879 c 0,0 -0.765011,-0.38251 -1.912527,0.95626 -1.147516,1.33877 -4.398811,4.59007 -4.207559,5.92883 0.191253,1.33877 0.191253,3.63381 0.956264,4.01631 0.76501,0.38251 -2.10378,0.19125 -2.86879,-1.33877 -0.765011,-1.53002 -1.530022,-5.92883 -0.956264,-7.2676 0.573758,-1.33877 0.765011,-4.01631 1.147516,-5.54633 0.382506,-1.53002 1.147516,-2.67753 -0.765011,-4.20756 -1.912526,-1.53002 -2.86879,-4.59006 -3.060042,-5.16382 -0.191253,-0.57376 1.338768,-2.86879 1.338768,-2.86879 0,0 1.530022,-1.33877 -0.382505,-1.91253 -1.912527,-0.57375 -3.442548,-0.76501 -6.311338,-2.48628 -2.8687903,-1.72127 -2.6775377,-0.57376 -4.9725698,-3.06004 -2.2950321,-2.48629 -2.0929342,-2.56767 -4.0163061,-5.92884 -1.53505914,-2.68258 -1.80430632,-5.45154 -1.80430632,-5.45154 0,0 1.71974062,-11.798155 4.20252112,-13.191394 2.4827806,-1.393238 2.0819497,0.573758 3.1447543,0.768369 2.3269753,0.426095 2.4896432,1.618092 3.8284118,1.426839 1.338769,-0.191253 4.398812,1.912526 4.016306,-0.191253 -0.382505,-2.103779 -1.530021,-5.355074 0,-4.781316 1.530022,0.573758 4.781317,3.6338 6.885097,4.398811 2.103779,0.765011 2.295032,1.912527 0.76501,1.721274 -1.530021,-0.191252 -2.86879,-1.721274 -2.486284,0 0.382505,1.72127 -2.295033,4.01631 -2.10378,1.72127 0.191253,-2.295028 -1.338769,-4.207555 -1.338769,-4.207555 0,0 -1.338768,2.486285 -2.677537,3.442545 -1.338769,0.95627 -4.3988116,2.67754 -3.060043,3.82506 1.338769,1.14751 4.398812,-0.76501 4.590064,1.14751 0.191253,1.91253 1.912527,4.59007 2.295032,1.91253 0.382506,-2.67754 -1.338768,-6.12009 0.382506,-5.54633 1.721274,0.57376 4.781317,2.29503 6.693843,4.01631 1.912527,1.72127 1.338769,2.67754 -1.338768,3.25129 -2.677538,0.57376 -2.10378,1.33877 -3.825054,2.86879 -1.721274,1.53003 -1.912527,2.86879 -3.060043,4.20756 -1.147516,1.33877 -0.382505,1.91253 -0.573758,3.44255 -0.191252,1.53002 -1.530021,0.76501 -1.338768,-0.57376 0.191252,-1.33877 0.573758,-2.86879 -1.530022,-1.91252 -2.103779,0.95626 -2.486285,-0.57376 -3.0600426,1.91252 -0.573758,2.48629 -0.3825053,3.06005 1.7212746,3.6338 2.103779,0.57376 1.338768,-0.76501 2.103779,-1.53002 0.765011,-0.76501 1.721274,-1.53002 0.956263,0 -0.76501,1.53002 -1.912526,0.95627 -1.147516,1.91253 0.765011,0.95626 3.633801,2.29503 3.633801,2.29503 z"
       id="path5302"
       inkscape:connector-curvature="0"
       sodipodi:nodetypes="csssssccsssssssscssssczsssssssscsssssssssssssssssc" /></g></g>
<g
   id="g4501"
   transform="translate(-76.41938,-12.711348)"><path
     inkscape:connector-curvature="0"
     style="opacity:0.2;fill:url(#linearGradient6004)"
     d="m 154.39163,52.687971 c 0,28.464623 -9.95444,38.421027 -38.42102,38.421027 -28.464615,0 -38.421009,-9.956404 -38.421009,-38.421027 0,-28.464626 9.956394,-38.42102 38.421009,-38.42102 28.46657,0 38.42102,9.956394 38.42102,38.42102 z"
     id="path4471" /><g
     transform="translate(5.6982169,-10.216296)"
     id="g10335"><path
       inkscape:connector-curvature="0"
       id="path4464"
       d="m 110.27236,100.35261 c -28.299263,0 -38.300401,-9.84843 -38.415178,-37.934682 -9.72e-4,0.164384 -0.0058,0.320986 -0.0058,0.486342 0,28.464627 9.956395,38.42102 38.421018,38.42102 28.46656,0 38.42101,-9.956393 38.42101,-38.42102 0,-0.165356 -0.005,-0.321958 -0.006,-0.486342 -0.11478,28.086252 -10.11397,37.934682 -38.41519,37.934682 z"
       style="opacity:0.5" /><path
       inkscape:connector-curvature="0"
       id="path4478"
       d="m 110.2724,24.483251 c -28.464629,0 -38.421024,9.956394 -38.421024,38.42102 0,28.464627 9.956395,38.421019 38.421024,38.421019 28.46657,0 38.42102,-9.956392 38.42102,-38.421019 0,-28.464626 -9.95445,-38.42102 -38.42102,-38.42102 z m 0,75.869359 c -27.998713,0 -37.448339,-9.449628 -37.448339,-37.448339 0,-27.99871 9.449625,-37.448336 37.448339,-37.448336 27.9987,0 37.44833,9.449626 37.44833,37.448336 0,27.998711 -9.44963,37.448339 -37.44833,37.448339 z"
       style="opacity:0.25;fill:url(#linearGradient6006)" /></g></g></svg>