<?xml version="1.0" encoding="UTF-8" standalone="no"?>
<!-- Created with Inkscape (http://www.inkscape.org/) -->

<svg
   xmlns:dc="http://purl.org/dc/elements/1.1/"
   xmlns:cc="http://creativecommons.org/ns#"
   xmlns:rdf="http://www.w3.org/1999/02/22-rdf-syntax-ns#"
   xmlns:svg="http://www.w3.org/2000/svg"
   xmlns="http://www.w3.org/2000/svg"
   xmlns:xlink="http://www.w3.org/1999/xlink"
   xmlns:sodipodi="http://sodipodi.sourceforge.net/DTD/sodipodi-0.dtd"
   xmlns:inkscape="http://www.inkscape.org/namespaces/inkscape"
   width="40"
   height="40"
   id="svg13594"
   version="1.1"
   inkscape:version="0.48.2 r9819"
   sodipodi:docname="icon-m-toolbar-view-menu-white.svg"
   inkscape:export-filename="/home/jakub/Projects/meego-handset-theme-darko/blanco/meegotouch/icons/icon-m-toolbar-view-menu-white.png"
   inkscape:export-xdpi="89.790001"
   inkscape:export-ydpi="89.790001">
  <defs
     id="defs13596">
    <linearGradient
       id="linearGradient14125">
      <stop
         style="stop-color:#141414;stop-opacity:1;"
         offset="0"
         id="stop14127" />
      <stop
         style="stop-color:#505050;stop-opacity:0.90980393;"
         offset="1"
         id="stop14129" />
    </linearGradient>
    <linearGradient
       inkscape:collect="always"
       xlink:href="#linearGradient14125"
       id="linearGradient14131"
       x1="18.578053"
       y1="1018.2354"
       x2="18.701702"
       y2="1046.9216"
       gradientUnits="userSpaceOnUse" />
    <linearGradient
       inkscape:collect="always"
       xlink:href="#linearGradient14125"
       id="linearGradient14171"
       gradientUnits="userSpaceOnUse"
       x1="18.578053"
       y1="1018.2354"
       x2="18.701702"
       y2="1046.9216" />
    <linearGradient
       inkscape:collect="always"
       xlink:href="#linearGradient14125"
       id="linearGradient14173"
       gradientUnits="userSpaceOnUse"
       x1="18.578053"
       y1="1018.2354"
       x2="18.701702"
       y2="1046.9216" />
    <linearGradient
       inkscape:collect="always"
       xlink:href="#linearGradient14125"
       id="linearGradient14175"
       gradientUnits="userSpaceOnUse"
       x1="18.578053"
       y1="1018.2354"
       x2="18.701702"
       y2="1046.9216" />
    <linearGradient
       inkscape:collect="always"
       xlink:href="#linearGradient14125"
       id="linearGradient14178"
       gradientUnits="userSpaceOnUse"
       x1="18.578053"
       y1="1018.2354"
       x2="18.701702"
       y2="1046.9216" />
    <linearGradient
       inkscape:collect="always"
       xlink:href="#linearGradient14125"
       id="linearGradient14181"
       gradientUnits="userSpaceOnUse"
       x1="18.578053"
       y1="1018.2354"
       x2="18.701702"
       y2="1046.9216" />
    <linearGradient
       inkscape:collect="always"
       xlink:href="#linearGradient14125"
       id="linearGradient14184"
       gradientUnits="userSpaceOnUse"
       x1="18.578053"
       y1="1018.2354"
       x2="18.701702"
       y2="1046.9216"
       gradientTransform="translate(-0.15455961,0)" />
    <linearGradient
       inkscape:collect="always"
       xlink:href="#linearGradient14125"
       id="linearGradient14207"
       gradientUnits="userSpaceOnUse"
       x1="18.578053"
       y1="1018.2354"
       x2="18.701702"
       y2="1046.9216"
       gradientTransform="translate(-0.15455961,11.560986)" />
    <linearGradient
       inkscape:collect="always"
       xlink:href="#linearGradient14125"
       id="linearGradient14209"
       gradientUnits="userSpaceOnUse"
       x1="18.578053"
       y1="1018.2354"
       x2="18.701702"
       y2="1046.9216"
       gradientTransform="translate(-0.1545594,23.122102)" />
    <linearGradient
       inkscape:collect="always"
       xlink:href="#linearGradient14125"
       id="linearGradient14228"
       x1="19.412674"
       y1="1018.1735"
       x2="19.659969"
       y2="1047.849"
       gradientUnits="userSpaceOnUse" />
    <linearGradient
       inkscape:collect="always"
       xlink:href="#linearGradient14125"
       id="linearGradient12487"
       gradientUnits="userSpaceOnUse"
       x1="19.412674"
       y1="1018.1735"
       x2="19.659969"
       y2="1047.849" />
    <linearGradient
       inkscape:collect="always"
       xlink:href="#linearGradient14125"
       id="linearGradient12489"
       gradientUnits="userSpaceOnUse"
       x1="19.412674"
       y1="1018.1735"
       x2="19.659969"
       y2="1047.849" />
    <linearGradient
       inkscape:collect="always"
       xlink:href="#linearGradient14125"
       id="linearGradient12491"
       gradientUnits="userSpaceOnUse"
       x1="19.412674"
       y1="1018.1735"
       x2="19.659969"
       y2="1047.849" />
    <linearGradient
       inkscape:collect="always"
       xlink:href="#linearGradient14125"
       id="linearGradient12494"
       gradientUnits="userSpaceOnUse"
       x1="19.412674"
       y1="1018.1735"
       x2="19.659969"
       y2="1047.849"
       gradientTransform="translate(-0.18547141,-0.43276662)" />
    <linearGradient
       inkscape:collect="always"
       xlink:href="#linearGradient14125"
       id="linearGradient12497"
       gradientUnits="userSpaceOnUse"
       x1="19.412674"
       y1="1018.1735"
       x2="19.659969"
       y2="1047.849"
       gradientTransform="translate(-0.18547141,-0.43276662)" />
    <linearGradient
       inkscape:collect="always"
       xlink:href="#linearGradient14125"
       id="linearGradient12519"
       gradientUnits="userSpaceOnUse"
       gradientTransform="translate(0.43276661,-8.4698609)"
       x1="19.412674"
       y1="1018.1735"
       x2="19.659969"
       y2="1047.849" />
  </defs>
  <sodipodi:namedview
     id="base"
     pagecolor="#ffffff"
     bordercolor="#666666"
     borderopacity="1.0"
     inkscape:pageopacity="0.0"
     inkscape:pageshadow="2"
     inkscape:zoom="16.175"
     inkscape:cx="19.454383"
     inkscape:cy="20"
     inkscape:document-units="px"
     inkscape:current-layer="layer1"
     showgrid="false"
     inkscape:window-width="1612"
     inkscape:window-height="949"
     inkscape:window-x="200"
     inkscape:window-y="56"
     inkscape:window-maximized="0" />
  <metadata
     id="metadata13599">
    <rdf:RDF>
      <cc:Work
         rdf:about="">
        <dc:format>image/svg+xml</dc:format>
        <dc:type
           rdf:resource="http://purl.org/dc/dcmitype/StillImage" />
        <dc:title></dc:title>
      </cc:Work>
    </rdf:RDF>
  </metadata>
  <g
     inkscape:label="Layer 1"
     inkscape:groupmode="layer"
     id="layer1"
     transform="translate(0,-1012.3622)">
    <path
       style="color:#000000;fill:#b6b8ba;fill-opacity:1;fill-rule:nonzero;stroke:none;stroke-width:1;marker:none;visibility:visible;display:inline;overflow:visible;enable-background:accumulate"
       d="M 7.3125 5.875 C 5.7089987 5.875 4.3894263 7.0768671 4.1875 8.625 C 4.372451 10.191275 5.696122 11.40625 7.3125 11.40625 L 32.4375 11.40625 C 34.04258 11.40625 35.335112 10.20665 35.53125 8.65625 C 35.345977 7.0933905 34.051417 5.875 32.4375 5.875 L 7.3125 5.875 z "
       transform="translate(0,1012.3622)"
       id="rect13602" />
    <path
       style="color:#000000;fill:#ffffff;fill-opacity:0.50196078;fill-rule:nonzero;stroke:none;stroke-width:1;marker:none;visibility:visible;display:inline;overflow:visible;enable-background:accumulate"
       d="m 7.324386,1017.5502 c -1.7429641,0 -3.15625,1.4133 -3.15625,3.1562 l 0,0.5 c 0,0.032 -9.604e-4,0.062 0,0.094 0.048457,-1.7 1.4441305,-3.0625 3.15625,-3.0625 l 25.125,0 c 1.71212,0 3.076543,1.3625 3.125,3.0625 9.6e-4,-0.032 0,-0.061 0,-0.094 l 0,-0.5 c 0,-1.7429 -1.382036,-3.1562 -3.125,-3.1562 l -25.125,0 z"
       id="rect12513"
       inkscape:connector-curvature="0" />
    <path
       inkscape:connector-curvature="0"
       id="path13030"
       d="m 7.3243859,1024.4534 c -1.7429641,0 -3.15625,-1.4133 -3.15625,-3.1562 l 0,-0.5 c 0,-0.032 -9.604e-4,-0.062 0,-0.094 0.048457,1.7 1.4441305,3.0625 3.15625,3.0625 l 25.1250001,0 c 1.71212,0 3.076543,-1.3625 3.125,-3.0625 9.6e-4,0.032 0,0.061 0,0.094 l 0,0.5 c 0,1.7429 -1.382036,3.1562 -3.125,3.1562 l -25.1250001,0 z"
       style="color:#000000;fill:#000000;fill-opacity:0.50196078;fill-rule:nonzero;stroke:none;stroke-width:1;marker:none;visibility:visible;display:inline;overflow:visible;enable-background:accumulate" />
    <path
       style="color:#000000;fill:#c0c2c4;fill-opacity:1;fill-rule:nonzero;stroke:none;stroke-width:1;marker:none;visibility:visible;display:inline;overflow:visible;enable-background:accumulate"
       d="M 7.3125 17.40625 C 5.7089987 17.40625 4.3894263 18.608117 4.1875 20.15625 C 4.372451 21.722525 5.696122 22.9375 7.3125 22.9375 L 32.4375 22.9375 C 34.04258 22.9375 35.335112 21.7379 35.53125 20.1875 C 35.345977 18.62464 34.051417 17.40625 32.4375 17.40625 L 7.3125 17.40625 z "
       transform="translate(0,1012.3622)"
       id="rect13045" />
    <path
       inkscape:connector-curvature="0"
       id="path13047"
       d="m 7.324386,1029.0804 c -1.7429641,0 -3.15625,1.4133 -3.15625,3.1562 l 0,0.5 c 0,0.032 -9.604e-4,0.062 0,0.094 0.048457,-1.7 1.4441305,-3.0625 3.15625,-3.0625 l 25.125001,0 c 1.71212,0 3.076543,1.3625 3.125,3.0625 9.6e-4,-0.032 0,-0.061 0,-0.094 l 0,-0.5 c 0,-1.7429 -1.382036,-3.1562 -3.125,-3.1562 l -25.125001,0 z"
       style="color:#000000;fill:#ffffff;fill-opacity:0.50196078;fill-rule:nonzero;stroke:none;stroke-width:1;marker:none;visibility:visible;display:inline;overflow:visible;enable-background:accumulate" />
    <path
       style="color:#000000;fill:#000000;fill-opacity:0.50196078;fill-rule:nonzero;stroke:none;stroke-width:1;marker:none;visibility:visible;display:inline;overflow:visible;enable-background:accumulate"
       d="m 7.3243859,1035.9836 c -1.7429641,0 -3.15625,-1.4133 -3.15625,-3.1562 l 0,-0.5 c 0,-0.032 -9.604e-4,-0.062 0,-0.094 0.048457,1.7 1.4441305,3.0625 3.15625,3.0625 l 25.1250011,0 c 1.71212,0 3.076543,-1.3625 3.125,-3.0625 9.6e-4,0.032 0,0.061 0,0.094 l 0,0.5 c 0,1.7429 -1.382036,3.1562 -3.125,3.1562 l -25.1250011,0 z"
       id="path13049"
       inkscape:connector-curvature="0" />
    <path
       style="color:#000000;fill:#dddedf;fill-opacity:1;fill-rule:nonzero;stroke:none;stroke-width:1;marker:none;visibility:visible;display:inline;overflow:visible;enable-background:accumulate"
       d="M 7.3125 28.9375 C 5.7089983 28.9375 4.3894262 30.139367 4.1875 31.6875 C 4.372451 33.253775 5.6961224 34.46875 7.3125 34.46875 L 32.4375 34.46875 C 34.04258 34.46875 35.335112 33.26915 35.53125 31.71875 C 35.345977 30.15589 34.051417 28.9375 32.4375 28.9375 L 7.3125 28.9375 z "
       transform="translate(0,1012.3622)"
       id="rect13057" />
    <path
       style="color:#000000;fill:#ffffff;fill-opacity:0.50196078;fill-rule:nonzero;stroke:none;stroke-width:1;marker:none;visibility:visible;display:inline;overflow:visible;enable-background:accumulate"
       d="m 7.3243865,1040.6106 c -1.7429646,0 -3.1562505,1.4133 -3.1562505,3.1562 l 0,0.5 c 0,0.032 -9.604e-4,0.062 0,0.094 0.048457,-1.7 1.4441305,-3.0625 3.1562505,-3.0625 l 25.1249995,0 c 1.71212,0 3.076543,1.3625 3.125,3.0625 9.6e-4,-0.032 0,-0.061 0,-0.094 l 0,-0.5 c 0,-1.7429 -1.382036,-3.1562 -3.125,-3.1562 l -25.1249995,0 z"
       id="path13059"
       inkscape:connector-curvature="0" />
    <path
       inkscape:connector-curvature="0"
       id="path13061"
       d="m 7.3243855,1047.5138 c -1.7429637,0 -3.1562496,-1.4133 -3.1562496,-3.1562 l 0,-0.5 c 0,-0.032 -9.604e-4,-0.062 0,-0.094 0.048457,1.7 1.4441305,3.0625 3.1562496,3.0625 l 25.1250005,0 c 1.71212,0 3.076543,-1.3625 3.125,-3.0625 9.6e-4,0.032 0,0.061 0,0.094 l 0,0.5 c 0,1.7429 -1.382036,3.1562 -3.125,3.1562 l -25.1250005,0 z"
       style="color:#000000;fill:#000000;fill-opacity:0.50196078;fill-rule:nonzero;stroke:none;stroke-width:1;marker:none;visibility:visible;display:inline;overflow:visible;enable-background:accumulate" />
  </g>
</svg>
