<?xml version="1.0" encoding="UTF-8" standalone="no"?>
<!-- Created with Inkscape (http://www.inkscape.org/) -->

<svg
   xmlns:dc="http://purl.org/dc/elements/1.1/"
   xmlns:cc="http://creativecommons.org/ns#"
   xmlns:rdf="http://www.w3.org/1999/02/22-rdf-syntax-ns#"
   xmlns:svg="http://www.w3.org/2000/svg"
   xmlns="http://www.w3.org/2000/svg"
   xmlns:xlink="http://www.w3.org/1999/xlink"
   xmlns:sodipodi="http://sodipodi.sourceforge.net/DTD/sodipodi-0.dtd"
   xmlns:inkscape="http://www.inkscape.org/namespaces/inkscape"
   width="64"
   height="10"
   id="svg8264"
   version="1.1"
   inkscape:version="0.48.2 r9819"
   sodipodi:docname="meegotouch-progressindicator-inverted-bar-background.svg"
   inkscape:export-filename="/home/jakub/Projects/meego-handset-theme-darko/blanco/meegotouch/icons/meegotouch-progressindicator-inverted-bar-background.png"
   inkscape:export-xdpi="89.496986"
   inkscape:export-ydpi="89.496986">
  <defs
     id="defs8266">
    <linearGradient
       id="linearGradient8858">
      <stop
         style="stop-color:#ffffff;stop-opacity:0.88461536;"
         offset="0"
         id="stop8860" />
      <stop
         style="stop-color:#ffffff;stop-opacity:0.50196081;"
         offset="1"
         id="stop8862" />
    </linearGradient>
    <linearGradient
       id="linearGradient8835">
      <stop
         style="stop-color:#aaaaaa;stop-opacity:1;"
         offset="0"
         id="stop8837" />
      <stop
         style="stop-color:#aaaaaa;stop-opacity:0;"
         offset="1"
         id="stop8839" />
    </linearGradient>
    <linearGradient
       id="linearGradient8827">
      <stop
         style="stop-color:#707072;stop-opacity:0;"
         offset="0"
         id="stop8829" />
      <stop
         style="stop-color:#525054;stop-opacity:0.6076923;"
         offset="1"
         id="stop8831" />
    </linearGradient>
    <linearGradient
       inkscape:collect="always"
       xlink:href="#linearGradient8835"
       id="linearGradient8841"
       x1="31.974569"
       y1="1033.6577"
       x2="31.974569"
       y2="1043.2654"
       gradientUnits="userSpaceOnUse"
       gradientTransform="translate(-0.18259725,9.1974972)" />
    <linearGradient
       inkscape:collect="always"
       xlink:href="#linearGradient8858"
       id="linearGradient8864"
       x1="32.663437"
       y1="-6.9242225"
       x2="32.663437"
       y2="-10.235169"
       gradientUnits="userSpaceOnUse"
       gradientTransform="matrix(1,0,0,1.1863624,-0.05770965,1059.7444)" />
    <linearGradient
       inkscape:collect="always"
       xlink:href="#linearGradient8835"
       id="linearGradient8871"
       gradientUnits="userSpaceOnUse"
       gradientTransform="translate(-0.18259725,9.1974972)"
       x1="31.974569"
       y1="1033.6577"
       x2="31.974569"
       y2="1043.2654" />
    <linearGradient
       inkscape:collect="always"
       xlink:href="#linearGradient8858"
       id="linearGradient8873"
       gradientUnits="userSpaceOnUse"
       gradientTransform="matrix(1,0,0,1.1863624,-0.05770965,1059.7444)"
       x1="32.663437"
       y1="-6.9242225"
       x2="32.663437"
       y2="-10.235169" />
    <linearGradient
       inkscape:collect="always"
       xlink:href="#linearGradient8858"
       id="linearGradient4670"
       gradientUnits="userSpaceOnUse"
       gradientTransform="matrix(1,0,0,1.1863624,-0.17312894,1059.9752)"
       x1="32.663437"
       y1="-6.9242225"
       x2="32.663437"
       y2="-10.235169" />
    <linearGradient
       inkscape:collect="always"
       xlink:href="#linearGradient8835"
       id="linearGradient4673"
       gradientUnits="userSpaceOnUse"
       gradientTransform="translate(-0.29801654,9.4283358)"
       x1="31.974569"
       y1="1033.6577"
       x2="31.974569"
       y2="1043.2654" />
  </defs>
  <sodipodi:namedview
     id="base"
     pagecolor="#ffffff"
     bordercolor="#666666"
     borderopacity="1.0"
     inkscape:pageopacity="0.0"
     inkscape:pageshadow="2"
     inkscape:zoom="15.385821"
     inkscape:cx="31.113547"
     inkscape:cy="9.5798025"
     inkscape:document-units="px"
     inkscape:current-layer="layer1"
     showgrid="false"
     inkscape:window-width="1622"
     inkscape:window-height="969"
     inkscape:window-x="109"
     inkscape:window-y="30"
     inkscape:window-maximized="0" />
  <metadata
     id="metadata8269">
    <rdf:RDF>
      <cc:Work
         rdf:about="">
        <dc:format>image/svg+xml</dc:format>
        <dc:type
           rdf:resource="http://purl.org/dc/dcmitype/StillImage" />
        <dc:title></dc:title>
      </cc:Work>
    </rdf:RDF>
  </metadata>
  <g
     inkscape:label="Layer 1"
     inkscape:groupmode="layer"
     id="layer1"
     transform="translate(0,-1042.3622)">
    <rect
       style="fill:#ffffff;fill-opacity:0;stroke:none"
       id="rect8875"
       width="64"
       height="9.9837694"
       x="0.057709649"
       y="0.016230838"
       transform="translate(0,1042.3622)"
       rx="0"
       ry="0"
       inkscape:export-filename="/home/jakub/Projects/meego-handset-theme-darko/blanco/meegotouch/icons/meegotouch-progressindicator-bar-background.png"
       inkscape:export-xdpi="89.790001"
       inkscape:export-ydpi="89.790001" />
    <path
       style="opacity:1;fill:#2d2d2d;fill-opacity:1;stroke:none"
       d="M 5.71875 1.8125 C 3.4238486 1.8125 1.5625 3.2867 1.5625 5.125 C 1.5625 6.9634 3.4238486 8.4375 5.71875 8.4375 L 58.4375 8.4375 C 60.732401 8.4375 62.59375 6.9634 62.59375 5.125 C 62.59375 3.2867 60.732401 1.8125 58.4375 1.8125 L 5.71875 1.8125 z M 1.8125 1.84375 C 1.4258786 2.2088357 1.1221537 2.6413751 0.90625 3.125 C 1.1224613 2.6421734 1.4254684 2.2077812 1.8125 1.84375 z M 62.3125 1.84375 C 62.506016 2.0257656 62.690102 2.2231514 62.84375 2.4375 C 62.685671 2.2161825 62.512782 2.0307049 62.3125 1.84375 z M 63.25 3.125 C 63.466211 3.6078266 63.5625 4.128025 63.5625 4.6875 C 63.5625 5.247 63.466211 5.7954844 63.25 6.28125 C 63.465904 5.7976251 63.59375 5.2782451 63.59375 4.71875 C 63.59375 4.1592549 63.465904 3.6086249 63.25 3.125 z M 0.90625 6.28125 C 1.1221537 6.7648749 1.4258786 7.1974143 1.8125 7.5625 C 1.4254684 7.1945625 1.1224613 6.7670156 0.90625 6.28125 z M 62.84375 6.96875 C 62.690102 7.1849316 62.506016 7.3785313 62.3125 7.5625 C 62.512782 7.3755451 62.685671 7.1900675 62.84375 6.96875 z "
       id="rect8791"
       transform="translate(0,1042.3622)" />
    <path
       style="fill:#212020;fill-opacity:1;stroke:none;opacity:1"
       d="m 4.8523018,1043.0212 c -2.3699948,0 -4.28124994,1.7933 -4.28124994,4.0312 0,2.238 1.91125514,4.0625 4.28124994,4.0625 l 54.4374992,0 c 2.369995,0 4.28125,-1.8245 4.28125,-4.0625 0,-2.2379 -1.911255,-4.0312 -4.28125,-4.0312 l -54.4374992,0 z m 0.875,1.1562 52.7187492,0 c 2.294901,0 4.15625,1.4742 4.15625,3.3125 0,1.8384 -1.861349,3.3125 -4.15625,3.3125 l -52.7187492,0 c -2.2949014,0 -4.15625,-1.4741 -4.15625,-3.3125 0,-1.8383 1.8613486,-3.3125 4.15625,-3.3125 z"
       id="rect8793"
       inkscape:connector-curvature="0" />
    <path
       style="fill:url(#linearGradient4670);fill-opacity:1;stroke:none;opacity:0.24"
       d="m 63.420621,1047.7779 c -0.615959,1.9236 -2.153831,3.2996 -4,3.2996 l -54.8749999,0 c -1.7809046,0 -3.3104552,-1.261 -3.96875004,-3.0772 0.39760045,2.1879 2.11375464,3.8187 4.18750004,3.8187 l 54.4687499,0 c 2.141709,0 3.867463,-1.7454 4.1875,-4.0411 z"
       id="rect8853"
       inkscape:connector-curvature="0" />
  </g>
</svg>
