<?xml version="1.0" encoding="UTF-8" standalone="no"?>
<!-- Created with Inkscape (http://www.inkscape.org/) -->

<svg
   xmlns:dc="http://purl.org/dc/elements/1.1/"
   xmlns:cc="http://creativecommons.org/ns#"
   xmlns:rdf="http://www.w3.org/1999/02/22-rdf-syntax-ns#"
   xmlns:svg="http://www.w3.org/2000/svg"
   xmlns="http://www.w3.org/2000/svg"
   xmlns:xlink="http://www.w3.org/1999/xlink"
   xmlns:sodipodi="http://sodipodi.sourceforge.net/DTD/sodipodi-0.dtd"
   xmlns:inkscape="http://www.inkscape.org/namespaces/inkscape"
   width="42"
   height="42"
   id="svg5569"
   version="1.1"
   inkscape:version="0.48.2 r9819"
   sodipodi:docname="meegotouch-button-checkbox-inverted-background-selected.svg"
   inkscape:export-filename="/home/jakub/Projects/meego-handset-theme-darko/blanco/meegotouch/icons/meegotouch-button-checkbox-inverted-background-selected.png"
   inkscape:export-xdpi="90"
   inkscape:export-ydpi="90">
  <defs
     id="defs5571">
    <linearGradient
       id="linearGradient11585">
      <stop
         id="stop11587"
         offset="0"
         style="stop-color:#000000;stop-opacity:0.73846155;" />
      <stop
         id="stop11589"
         offset="1"
         style="stop-color:#000000;stop-opacity:0.30769232;" />
    </linearGradient>
    <linearGradient
       id="linearGradient7483">
      <stop
         id="stop7485"
         offset="0"
         style="stop-color:#000000;stop-opacity:0.03846154;" />
      <stop
         style="stop-color:#0a0a0a;stop-opacity:0.48461539;"
         offset="0.32876712"
         id="stop7487" />
      <stop
         style="stop-color:#141414;stop-opacity:0.7037037"
         offset="1"
         id="stop7489" />
    </linearGradient>
    <linearGradient
       id="linearGradient7435">
      <stop
         style="stop-color:#1849ff;stop-opacity:1;"
         offset="0"
         id="stop7437" />
      <stop
         style="stop-color:#227eff;stop-opacity:1;"
         offset="1"
         id="stop7439" />
    </linearGradient>
    <linearGradient
       id="linearGradient19869">
      <stop
         id="stop19871"
         offset="0"
         style="stop-color:#ffffff;stop-opacity:1;" />
      <stop
         style="stop-color:#ffffff;stop-opacity:1;"
         offset="0.5"
         id="stop19875" />
      <stop
         id="stop19873"
         offset="1"
         style="stop-color:#252327;stop-opacity:1;" />
    </linearGradient>
    <linearGradient
       y2="989.6731"
       x2="33.28912"
       y1="1048.1094"
       x1="33.28912"
       gradientTransform="matrix(0.66298248,0,0,0.66298248,-0.39399298,355.64136)"
       gradientUnits="userSpaceOnUse"
       id="linearGradient19907"
       xlink:href="#linearGradient19006-4"
       inkscape:collect="always" />
    <linearGradient
       id="linearGradient19006-4">
      <stop
         style="stop-color:#ffffff;stop-opacity:1;"
         offset="0"
         id="stop19008-9" />
      <stop
         style="stop-color:#bebebc;stop-opacity:1;"
         offset="1"
         id="stop19010-8" />
    </linearGradient>
    <linearGradient
       id="linearGradient20035">
      <stop
         style="stop-color:#000000;stop-opacity:0.03846154;"
         offset="0"
         id="stop20037" />
      <stop
         id="stop7475"
         offset="0.32876712"
         style="stop-color:#0a0a0a;stop-opacity:0.48461539;" />
      <stop
         id="stop7473"
         offset="1"
         style="stop-color:#141414;stop-opacity:0.99230766;" />
    </linearGradient>
    <linearGradient
       inkscape:collect="always"
       xlink:href="#linearGradient19869"
       id="linearGradient5803"
       gradientUnits="userSpaceOnUse"
       x1="23.036972"
       y1="1051.5979"
       x2="23.036972"
       y2="1009.9876" />
    <linearGradient
       inkscape:collect="always"
       xlink:href="#linearGradient19006-4"
       id="linearGradient5805"
       gradientUnits="userSpaceOnUse"
       gradientTransform="matrix(0.66298248,0,0,0.66298248,-0.39399298,355.64136)"
       x1="33.28912"
       y1="1048.1094"
       x2="33.28912"
       y2="989.6731" />
    <linearGradient
       inkscape:collect="always"
       xlink:href="#linearGradient19869"
       id="linearGradient5815"
       gradientUnits="userSpaceOnUse"
       gradientTransform="matrix(1.0093726,0,0,-1.0093726,5.2955539,2072.2591)"
       x1="23.036972"
       y1="1051.5979"
       x2="23.036972"
       y2="1009.9876" />
    <linearGradient
       inkscape:collect="always"
       xlink:href="#linearGradient19006-4"
       id="linearGradient7578"
       gradientUnits="userSpaceOnUse"
       gradientTransform="translate(0.45923788,2062.5702)"
       x1="20.562065"
       y1="-1011.3038"
       x2="20.562065"
       y2="-1051.5481" />
    <linearGradient
       inkscape:collect="always"
       xlink:href="#linearGradient20035"
       id="linearGradient7581"
       gradientUnits="userSpaceOnUse"
       gradientTransform="matrix(1,0,0,-1,0.40222919,-0.40858402)"
       x1="21.510994"
       y1="-1029.228"
       x2="21.510994"
       y2="-1011.4818" />
    <linearGradient
       inkscape:collect="always"
       xlink:href="#linearGradient7435"
       id="linearGradient7584"
       gradientUnits="userSpaceOnUse"
       gradientTransform="translate(0.4512328,0.4227078)"
       x1="20.562065"
       y1="-1011.3038"
       x2="20.562065"
       y2="-1051.5481" />
    <linearGradient
       inkscape:collect="always"
       xlink:href="#linearGradient12826"
       id="linearGradient7787"
       gradientUnits="userSpaceOnUse"
       gradientTransform="matrix(1.0187065,0,0,1,-0.64421223,-0.029529)"
       x1="30.15486"
       y1="1010.8201"
       x2="30.15486"
       y2="1051.9437" />
    <linearGradient
       id="linearGradient12826">
      <stop
         style="stop-color:#6699ff;stop-opacity:1;"
         offset="0"
         id="stop12828" />
      <stop
         style="stop-color:#227eff;stop-opacity:1;"
         offset="1"
         id="stop12830" />
    </linearGradient>
    <linearGradient
       inkscape:collect="always"
       xlink:href="#linearGradient19006-4"
       id="linearGradient7827"
       gradientUnits="userSpaceOnUse"
       gradientTransform="translate(49.908991,2042.0101)"
       x1="20.562065"
       y1="-1011.3038"
       x2="20.562065"
       y2="-1051.5481" />
    <linearGradient
       inkscape:collect="always"
       xlink:href="#linearGradient20035"
       id="linearGradient7830"
       gradientUnits="userSpaceOnUse"
       gradientTransform="matrix(1,0,0,-1,23.387402,-19.703477)"
       x1="21.510994"
       y1="-1029.228"
       x2="21.510994"
       y2="-1011.4818" />
    <linearGradient
       inkscape:collect="always"
       xlink:href="#linearGradient7435"
       id="linearGradient7833"
       gradientUnits="userSpaceOnUse"
       gradientTransform="translate(-28.438388,29.628639)"
       x1="20.562065"
       y1="-1011.3038"
       x2="20.562065"
       y2="-1051.5481" />
    <linearGradient
       inkscape:collect="always"
       xlink:href="#linearGradient12826"
       id="linearGradient7838"
       gradientUnits="userSpaceOnUse"
       gradientTransform="matrix(0.66326431,0,0,1,43.970308,-26.886192)"
       x1="30.15486"
       y1="1010.8201"
       x2="30.15486"
       y2="1051.9437" />
    <linearGradient
       inkscape:collect="always"
       xlink:href="#linearGradient12826"
       id="linearGradient7854"
       gradientUnits="userSpaceOnUse"
       gradientTransform="matrix(0.66326431,0,0,1,44.181181,-1037.2484)"
       x1="30.15486"
       y1="1010.8201"
       x2="30.15486"
       y2="1051.9437" />
    <linearGradient
       inkscape:collect="always"
       xlink:href="#linearGradient20035"
       id="linearGradient7857"
       gradientUnits="userSpaceOnUse"
       gradientTransform="matrix(0.66326431,0,0,1,65.054617,-15.618728)"
       x1="32.539352"
       y1="1025.7936"
       x2="32.539352"
       y2="1010.6126" />
    <linearGradient
       inkscape:collect="always"
       xlink:href="#linearGradient12826"
       id="linearGradient7861"
       gradientUnits="userSpaceOnUse"
       gradientTransform="matrix(0.66326431,0,0,1,48.900433,-1015.5285)"
       x1="30.15486"
       y1="1010.8201"
       x2="30.15486"
       y2="1051.9437" />
    <linearGradient
       inkscape:collect="always"
       xlink:href="#linearGradient12826"
       id="linearGradient6747"
       gradientUnits="userSpaceOnUse"
       gradientTransform="matrix(0.66326431,0,0,1,-49.128864,-1027.2319)"
       x1="30.15486"
       y1="1010.8201"
       x2="30.15486"
       y2="1051.9437" />
    <filter
       inkscape:collect="always"
       id="filter11682"
       x="-0.11119532"
       width="1.2223906"
       y="-0.13031892"
       height="1.2606378">
      <feGaussianBlur
         inkscape:collect="always"
         stdDeviation="1.3912134"
         id="feGaussianBlur11684" />
    </filter>
  </defs>
  <sodipodi:namedview
     id="base"
     pagecolor="#ffffff"
     bordercolor="#666666"
     borderopacity="1.0"
     inkscape:pageopacity="0.0"
     inkscape:pageshadow="2"
     inkscape:zoom="14.415582"
     inkscape:cx="27.652865"
     inkscape:cy="20.386149"
     inkscape:document-units="px"
     inkscape:current-layer="layer1"
     showgrid="false"
     inkscape:window-width="1726"
     inkscape:window-height="978"
     inkscape:window-x="66"
     inkscape:window-y="24"
     inkscape:window-maximized="0" />
  <metadata
     id="metadata5574">
    <rdf:RDF>
      <cc:Work
         rdf:about="">
        <dc:format>image/svg+xml</dc:format>
        <dc:type
           rdf:resource="http://purl.org/dc/dcmitype/StillImage" />
        <dc:title></dc:title>
      </cc:Work>
    </rdf:RDF>
  </metadata>
  <g
     inkscape:label="Layer 1"
     inkscape:groupmode="layer"
     id="layer1"
     transform="translate(0,-1010.3622)">
    <rect
       style="color:#000000;fill:#7bb545;fill-opacity:1;fill-rule:nonzero;stroke:none;stroke-width:50;marker:none;visibility:visible;display:inline;overflow:visible;enable-background:accumulate"
       id="rect11569"
       width="40.019894"
       height="40.117802"
       x="0.9900468"
       y="1011.3141"
       ry="5.2308259" />
    <g
       id="g13341"
       transform="translate(1.1099102,0.69369377)">
      <path
         inkscape:connector-curvature="0"
         style="color:#000000;fill:#020000;fill-opacity:1;fill-rule:nonzero;stroke:none;stroke-width:50;marker:none;visibility:visible;display:inline;overflow:visible;filter:url(#filter11682);enable-background:accumulate"
         d="m 32.201239,1019.789 c -0.122253,0.018 -0.232473,0.08 -0.3125,0.1875 l -13.625,18.2813 -8.9375002,-6.6563 c -0.1252203,-0.093 -0.3128792,-0.063 -0.40625,0.062 l -2.75,3.7188 c -0.093371,0.1252 -0.06272,0.2816 0.0625,0.375 l 9.2500002,6.9062 c 0.0194,0.021 0.03894,0.045 0.0625,0.062 l 3.375,2.5 c 0.01789,0.013 0.04354,0.021 0.0625,0.031 l 0.125,0.094 c 0.12522,0.093 0.281629,0.063 0.375,-0.062 l 0.09375,-0.1562 0.03125,0 2.65625,-3.5313 c 0.0065,-0.01 -0.0054,-0.022 0,-0.031 l 13.78125,-18.4688 c 0.160055,-0.2146 0.120901,-0.5274 -0.09375,-0.6875 l -3.375,-2.5312 c -0.107326,-0.08 -0.252747,-0.1116 -0.375,-0.094 z"
         id="path11660" />
      <path
         inkscape:connector-curvature="0"
         id="rect11652"
         d="m 32.0625,1018.7485 c -0.122253,0.018 -0.232473,0.08 -0.3125,0.1875 l -13.625,18.2813 -8.9375,-6.6563 c -0.1252203,-0.093 -0.3128792,-0.063 -0.40625,0.062 l -2.75,3.7188 c -0.093371,0.1252 -0.06272,0.2816 0.0625,0.375 l 9.25,6.9062 c 0.0194,0.021 0.03894,0.045 0.0625,0.062 l 3.375,2.5 c 0.01789,0.013 0.04354,0.021 0.0625,0.031 l 0.125,0.094 c 0.12522,0.093 0.281629,0.063 0.375,-0.062 l 0.09375,-0.1562 0.03125,0 2.65625,-3.5313 c 0.0065,-0.01 -0.0054,-0.022 0,-0.031 l 13.78125,-18.4688 c 0.160055,-0.2146 0.120901,-0.5274 -0.09375,-0.6875 l -3.375,-2.5312 c -0.107326,-0.08 -0.252747,-0.1116 -0.375,-0.094 z"
         style="color:#000000;fill:#ffffff;fill-opacity:1;fill-rule:nonzero;stroke:none;stroke-width:50;marker:none;visibility:visible;display:inline;overflow:visible;enable-background:accumulate" />
    </g>
    <path
       style="color:#000000;fill:#020000;fill-opacity:0.50196078;fill-rule:nonzero;stroke:none;stroke-width:50;marker:none;visibility:visible;display:inline;overflow:visible;enable-background:accumulate"
       d="m 6.2031187,1011.3104 c -2.8978782,0 -5.21875024,2.3209 -5.21875024,5.2188 l 0,29.6562 c 0,2.8979 2.32087204,5.25 5.21875024,5.25 l 29.5625003,0 c 2.897878,0 5.25,-2.3521 5.25,-5.25 l 0,-29.6562 c 0,-2.8979 -2.352122,-5.2188 -5.25,-5.2188 l -29.5625003,0 z m 0.5937495,1.1563 28.3750008,0 c 2.762585,0 5,2.2374 5,5 l 0,28.2812 c 0,2.7626 -2.237415,4.9688 -5,4.9688 l -28.3750008,0 c -2.7625845,0 -4.9687497,-2.2062 -4.9687497,-4.9688 l 0,-28.2812 c 0,-2.7626 2.2061652,-5 4.9687497,-5 z"
       id="rect13345"
       inkscape:connector-curvature="0" />
    <path
       style="color:#000000;fill:#808080;fill-opacity:0.50196081;fill-rule:nonzero;stroke:none;stroke-width:50;marker:none;visibility:visible;display:inline;overflow:visible;enable-background:accumulate"
       d="m 0.98304536,1046.132 0,1 c 0,2.8878 2.33089404,5.1875 5.21875004,5.1875 l 29.5937506,0 c 2.887856,0 5.21875,-2.2997 5.21875,-5.1875 l 0,-1 c 0,2.8978 -2.352122,5.2187 -5.25,5.2187 l -29.5312506,0 c -2.897878,0 -5.25000004,-2.3209 -5.25000004,-5.2187 z"
       id="rect13355"
       inkscape:connector-curvature="0" />
  </g>
</svg>
