<?xml version="1.0" encoding="UTF-8" standalone="no"?>
<!-- Generator: Adobe Illustrator 14.0.0, SVG Export Plug-In . SVG Version: 6.00 Build 43363)  -->

<svg
   xmlns:dc="http://purl.org/dc/elements/1.1/"
   xmlns:cc="http://creativecommons.org/ns#"
   xmlns:rdf="http://www.w3.org/1999/02/22-rdf-syntax-ns#"
   xmlns:svg="http://www.w3.org/2000/svg"
   xmlns="http://www.w3.org/2000/svg"
   xmlns:xlink="http://www.w3.org/1999/xlink"
   xmlns:sodipodi="http://sodipodi.sourceforge.net/DTD/sodipodi-0.dtd"
   xmlns:inkscape="http://www.inkscape.org/namespaces/inkscape"
   inkscape:export-ydpi="90"
   inkscape:export-xdpi="90"
   inkscape:export-filename="/scratchbox/users/jakub/home/jakub/Projects/Harmattan/Darko/meegotouch/icons/icon-l-contacts.png"
   sodipodi:docname="meego-terminal.svg"
   inkscape:version="0.48.1 r9760"
   xml:space="preserve"
   style="enable-background:new 0 0 80 80;"
   viewBox="0 0 80 80"
   height="80px"
   width="80px"
   y="0px"
   x="0px"
   id="icon-l-default-application-layer"
   version="1.1"><sodipodi:namedview
   pagecolor="#ffffff"
   bordercolor="#666666"
   borderopacity="1"
   objecttolerance="10"
   gridtolerance="10"
   guidetolerance="10"
   inkscape:pageopacity="0"
   inkscape:pageshadow="2"
   inkscape:window-width="1421"
   inkscape:window-height="1004"
   id="namedview4480"
   showgrid="false"
   inkscape:zoom="10.55"
   inkscape:cx="40"
   inkscape:cy="40"
   inkscape:window-x="153"
   inkscape:window-y="30"
   inkscape:window-maximized="0"
   inkscape:current-layer="icon-l-default-application-layer" /><metadata
   id="metadata4484"><rdf:RDF><cc:Work
       rdf:about=""><dc:format>image/svg+xml</dc:format><dc:type
         rdf:resource="http://purl.org/dc/dcmitype/StillImage" /><dc:title /></cc:Work></rdf:RDF></metadata><defs
   id="defs4482"><linearGradient
   id="linearGradient9927"><stop
     id="stop9929"
     offset="0"
     style="stop-color:#001235;stop-opacity:1;" /><stop
     id="stop9931"
     offset="1"
     style="stop-color:#0e1c80;stop-opacity:1;" /></linearGradient><linearGradient
   id="linearGradient9917"><stop
     id="stop9919"
     offset="0"
     style="stop-color:#709cf1;stop-opacity:1;" /><stop
     id="stop9921"
     offset="1"
     style="stop-color:#000529;stop-opacity:1;" /></linearGradient><linearGradient
   id="linearGradient9879"><stop
     style="stop-color:#709cf1;stop-opacity:1;"
     offset="0"
     id="stop9881" /><stop
     style="stop-color:#000529;stop-opacity:1;"
     offset="1"
     id="stop9883" /></linearGradient><linearGradient
   id="linearGradient8719"><stop
     id="stop8721"
     offset="0"
     style="stop-color:#ffffff;stop-opacity:1;" /><stop
     id="stop8723"
     offset="1"
     style="stop-color:#dcdcdc;stop-opacity:1;" /></linearGradient><linearGradient
   id="linearGradient8711"><stop
     id="stop8713"
     offset="0"
     style="stop-color:#ff8149;stop-opacity:1;" /><stop
     id="stop8715"
     offset="1"
     style="stop-color:#d86004;stop-opacity:1;" /></linearGradient><linearGradient
   id="linearGradient6797"><stop
     style="stop-color:#fff3c5;stop-opacity:1;"
     offset="0"
     id="stop6799" /><stop
     style="stop-color:#fde97c;stop-opacity:1;"
     offset="1"
     id="stop6801" /></linearGradient><linearGradient
   id="linearGradient7344"><stop
     id="stop7346"
     offset="0"
     style="stop-color:#373333;stop-opacity:1;" /><stop
     id="stop7348"
     offset="1"
     style="stop-color:#000000;stop-opacity:1;" /></linearGradient><linearGradient
   id="linearGradient6824"><stop
     style="stop-color:#63402a;stop-opacity:1;"
     offset="0"
     id="stop6826" /><stop
     style="stop-color:#a58446;stop-opacity:1;"
     offset="1"
     id="stop6828" /></linearGradient><linearGradient
   id="linearGradient5603"><stop
     id="stop5605"
     offset="0"
     style="stop-color:#dfddde;stop-opacity:1;" /><stop
     id="stop5607"
     offset="1"
     style="stop-color:#121212;stop-opacity:1;" /></linearGradient><inkscape:perspective
   sodipodi:type="inkscape:persp3d"
   inkscape:vp_x="0 : 40 : 1"
   inkscape:vp_y="0 : 1000 : 0"
   inkscape:vp_z="80 : 40 : 1"
   inkscape:persp3d-origin="40 : 26.666667 : 1"
   id="perspective4486" />
	
	
	<linearGradient
   y2="65.9187"
   x2="39.4995"
   y1="0.7837"
   x1="39.4995"
   gradientUnits="userSpaceOnUse"
   id="SVGID_1_">
		<stop
   id="stop4467"
   style="stop-color:#FFFFFF"
   offset="0" />
		<stop
   id="stop4469"
   style="stop-color:#FFFFFF;stop-opacity:0"
   offset="0.7362" />
	</linearGradient>
	
	<linearGradient
   y2="78.7542"
   x2="39.4995"
   y1="0"
   x1="39.4995"
   gradientUnits="userSpaceOnUse"
   id="SVGID_2_">
		<stop
   id="stop4474"
   style="stop-color:#FFFFFF"
   offset="0" />
		<stop
   id="stop4476"
   style="stop-color:#FFFFFF;stop-opacity:0"
   offset="1" />
	</linearGradient>
	

		
		
	<clipPath
   clipPathUnits="userSpaceOnUse"
   id="clipPath5642"><path
     style="fill:#cccccc"
     d="m 164.59929,-47.223025 c 0,29.264 -10.234,39.4999975 -39.5,39.4999975 -29.263979,0 -39.499979,-10.2359975 -39.499979,-39.4999975 0,-29.263999 10.236,-39.5 39.499979,-39.5 29.266,0 39.5,10.236001 39.5,39.5 z"
     id="path5644"
     inkscape:label="#path4462" /></clipPath><inkscape:perspective
   id="perspective5887"
   inkscape:persp3d-origin="0.5 : 0.33333333 : 1"
   inkscape:vp_z="1 : 0.5 : 1"
   inkscape:vp_y="0 : 1000 : 0"
   inkscape:vp_x="0 : 0.5 : 1"
   sodipodi:type="inkscape:persp3d" /><mask
   maskUnits="userSpaceOnUse"
   id="mask5937"><path
     style="fill:#ffffff"
     d="m 80.888774,40.582111 c 0,29.264 -10.234,39.499998 -39.5,39.499998 -29.26398,0 -39.4999797,-10.235998 -39.4999797,-39.499998 0,-29.263999 10.2359997,-39.4999998 39.4999797,-39.4999998 29.266,0 39.5,10.2360008 39.5,39.4999998 z"
     id="path5939"
     inkscape:label="#path4462" /></mask><linearGradient
   inkscape:collect="always"
   xlink:href="#SVGID_1_"
   id="linearGradient3360"
   gradientUnits="userSpaceOnUse"
   gradientTransform="translate(0.96948303,0.70195468)"
   x1="39.4995"
   y1="0.7837"
   x2="39.4995"
   y2="65.9187" /><linearGradient
   inkscape:collect="always"
   xlink:href="#SVGID_2_"
   id="linearGradient3362"
   gradientUnits="userSpaceOnUse"
   gradientTransform="translate(1.7406773,1.1204524)"
   x1="39.4995"
   y1="0"
   x2="39.4995"
   y2="78.7542" /><inkscape:perspective
   id="perspective3445"
   inkscape:persp3d-origin="0.5 : 0.33333333 : 1"
   inkscape:vp_z="1 : 0.5 : 1"
   inkscape:vp_y="0 : 1000 : 0"
   inkscape:vp_x="0 : 0.5 : 1"
   sodipodi:type="inkscape:persp3d" /><linearGradient
   inkscape:collect="always"
   xlink:href="#SVGID_2_-9"
   id="linearGradient3429"
   gradientUnits="userSpaceOnUse"
   gradientTransform="translate(-2.3063136,21.812262)"
   x1="39.4995"
   y1="0"
   x2="39.4995"
   y2="78.754204" /><linearGradient
   y2="78.754204"
   x2="39.4995"
   y1="0"
   x1="39.4995"
   gradientUnits="userSpaceOnUse"
   id="SVGID_2_-9"><stop
     id="stop4474-5"
     style="stop-color:#FFFFFF"
     offset="0" /><stop
     id="stop4476-4"
     style="stop-color:#FFFFFF;stop-opacity:0"
     offset="1" /></linearGradient><linearGradient
   inkscape:collect="always"
   xlink:href="#SVGID_1_-3"
   id="linearGradient3431"
   gradientUnits="userSpaceOnUse"
   gradientTransform="translate(-2.6756496,22.091908)"
   x1="39.4995"
   y1="0.78369999"
   x2="39.4995"
   y2="65.918701" /><linearGradient
   y2="65.918701"
   x2="39.4995"
   y1="0.78369999"
   x1="39.4995"
   gradientUnits="userSpaceOnUse"
   id="SVGID_1_-3"><stop
     id="stop4467-9"
     style="stop-color:#FFFFFF"
     offset="0" /><stop
     id="stop4469-4"
     style="stop-color:#FFFFFF;stop-opacity:0"
     offset="0.7362" /></linearGradient><linearGradient
   gradientUnits="userSpaceOnUse"
   y2="-23.424488"
   x2="15.657663"
   y1="32.760555"
   x1="40.622326"
   id="linearGradient5611"
   xlink:href="#linearGradient5603"
   inkscape:collect="always" /><linearGradient
   y2="-23.424488"
   x2="15.657663"
   y1="32.760555"
   x1="40.622326"
   gradientUnits="userSpaceOnUse"
   id="linearGradient5631"
   xlink:href="#linearGradient5603"
   inkscape:collect="always" /><linearGradient
   gradientUnits="userSpaceOnUse"
   y2="90.511436"
   x2="39.855865"
   y1="35.326393"
   x1="39.855865"
   id="linearGradient5641"
   xlink:href="#linearGradient5603"
   inkscape:collect="always" /><radialGradient
   gradientUnits="userSpaceOnUse"
   gradientTransform="matrix(1,0,0,0.98333337,0,0.68001683)"
   r="39.417889"
   fy="40.801102"
   fx="40.512829"
   cy="40.801102"
   cx="40.512829"
   id="radialGradient5655"
   xlink:href="#linearGradient5603"
   inkscape:collect="always" /><clipPath
   id="clipPath5668"
   clipPathUnits="userSpaceOnUse"><path
     inkscape:label="#path4462"
     id="path5670"
     d="m 79.975235,41.198969 c 0,29.264 -10.234,39.5 -39.5,39.5 -29.263997,0 -39.49999377,-10.236 -39.49999377,-39.5 0,-29.264004 10.23599677,-39.5000051 39.49999377,-39.5000051 29.266,0 39.5,10.2360011 39.5,39.5000051 z"
     style="fill:#cccccc" /></clipPath><inkscape:perspective
   id="perspective6119"
   inkscape:persp3d-origin="0.5 : 0.33333333 : 1"
   inkscape:vp_z="1 : 0.5 : 1"
   inkscape:vp_y="0 : 1000 : 0"
   inkscape:vp_x="0 : 0.5 : 1"
   sodipodi:type="inkscape:persp3d" /><linearGradient
   id="SVGID_1_-3-9"
   gradientUnits="userSpaceOnUse"
   x1="39.4995"
   y1="0.78369999"
   x2="39.4995"
   y2="65.918701"><stop
     offset="0"
     style="stop-color:#FFFFFF"
     id="stop4467-9-1" /><stop
     offset="0.7362"
     style="stop-color:#FFFFFF;stop-opacity:0"
     id="stop4469-4-3" /></linearGradient><linearGradient
   y2="78.754204"
   x2="39.4995"
   y1="0"
   x1="39.4995"
   gradientTransform="translate(-2.3063136,21.812262)"
   gradientUnits="userSpaceOnUse"
   id="linearGradient3668"
   xlink:href="#SVGID_2_-9-6"
   inkscape:collect="always" /><linearGradient
   id="SVGID_2_-9-6"
   gradientUnits="userSpaceOnUse"
   x1="39.4995"
   y1="0"
   x2="39.4995"
   y2="78.754204"><stop
     offset="0"
     style="stop-color:#FFFFFF"
     id="stop4474-5-4" /><stop
     offset="1"
     style="stop-color:#FFFFFF;stop-opacity:0"
     id="stop4476-4-0" /></linearGradient><linearGradient
   inkscape:collect="always"
   xlink:href="#linearGradient5603"
   id="linearGradient6842"
   x1="-0.062023461"
   y1="40.253628"
   x2="49.115395"
   y2="40.253628"
   gradientUnits="userSpaceOnUse" /><radialGradient
   inkscape:collect="always"
   xlink:href="#linearGradient7344"
   id="radialGradient7342"
   cx="39.855869"
   cy="40.363125"
   fx="39.855869"
   fy="40.363125"
   r="38.549953"
   gradientUnits="userSpaceOnUse"
   gradientTransform="matrix(1.6302956,0.58492432,-0.30758699,0.85730352,-12.705805,-17.552992)" /><inkscape:perspective
   id="perspective7396"
   inkscape:persp3d-origin="0.5 : 0.33333333 : 1"
   inkscape:vp_z="1 : 0.5 : 1"
   inkscape:vp_y="0 : 1000 : 0"
   inkscape:vp_x="0 : 0.5 : 1"
   sodipodi:type="inkscape:persp3d" /><inkscape:perspective
   id="perspective6813"
   inkscape:persp3d-origin="0.5 : 0.33333333 : 1"
   inkscape:vp_z="1 : 0.5 : 1"
   inkscape:vp_y="0 : 1000 : 0"
   inkscape:vp_x="0 : 0.5 : 1"
   sodipodi:type="inkscape:persp3d" /><linearGradient
   y2="65.918701"
   x2="39.4995"
   y1="0.78369999"
   x1="39.4995"
   gradientTransform="translate(105.72354,-1.1208493)"
   gradientUnits="userSpaceOnUse"
   id="linearGradient7259"
   xlink:href="#SVGID_1_-3"
   inkscape:collect="always" /><inkscape:perspective
   id="perspective9250"
   inkscape:persp3d-origin="0.5 : 0.33333333 : 1"
   inkscape:vp_z="1 : 0.5 : 1"
   inkscape:vp_y="0 : 1000 : 0"
   inkscape:vp_x="0 : 0.5 : 1"
   sodipodi:type="inkscape:persp3d" /><linearGradient
   id="linearGradient7344-7"><stop
     id="stop7346-7"
     offset="0"
     style="stop-color:#595959;stop-opacity:1;" /><stop
     id="stop7348-8"
     offset="1"
     style="stop-color:#3a3737;stop-opacity:1;" /></linearGradient><linearGradient
   y2="65.918701"
   x2="39.4995"
   y1="0.78369999"
   x1="39.4995"
   gradientUnits="userSpaceOnUse"
   id="SVGID_1_-3-3"><stop
     id="stop4467-9-8"
     style="stop-color:#FFFFFF"
     offset="0" /><stop
     id="stop4469-4-1"
     style="stop-color:#FFFFFF;stop-opacity:0"
     offset="0.7362" /></linearGradient><linearGradient
   y2="78.754204"
   x2="39.4995"
   y1="0"
   x1="39.4995"
   gradientUnits="userSpaceOnUse"
   id="SVGID_2_-9-3"><stop
     id="stop4474-5-42"
     style="stop-color:#FFFFFF"
     offset="0" /><stop
     id="stop4476-4-1"
     style="stop-color:#FFFFFF;stop-opacity:0"
     offset="1" /></linearGradient><radialGradient
   inkscape:collect="always"
   xlink:href="#linearGradient7344-7"
   id="radialGradient9336"
   gradientUnits="userSpaceOnUse"
   gradientTransform="matrix(0.97678193,0.214236,-0.2217603,1.011088,27.672,-93.637746)"
   cx="31.500809"
   cy="119.35918"
   fx="31.500809"
   fy="119.35918"
   r="39.499996" /><radialGradient
   inkscape:collect="always"
   xlink:href="#linearGradient5603"
   id="radialGradient9889"
   gradientUnits="userSpaceOnUse"
   gradientTransform="matrix(-1.1532346,-0.94204005,0.63262798,-0.77445584,55.011522,104.2448)"
   cx="29.470854"
   cy="20.770115"
   fx="29.470854"
   fy="20.770115"
   r="11.390625" /><radialGradient
   inkscape:collect="always"
   xlink:href="#linearGradient9879"
   id="radialGradient9891"
   gradientUnits="userSpaceOnUse"
   cx="27.217808"
   cy="26.12402"
   fx="27.217808"
   fy="26.12402"
   r="11.38739" /><radialGradient
   inkscape:collect="always"
   xlink:href="#linearGradient5603"
   id="radialGradient9897"
   gradientUnits="userSpaceOnUse"
   gradientTransform="matrix(-1.1532346,-0.94204005,0.63262798,-0.77445584,82.385056,75.447843)"
   cx="29.470854"
   cy="20.770115"
   fx="29.470854"
   fy="20.770115"
   r="11.390625" /><radialGradient
   inkscape:collect="always"
   xlink:href="#linearGradient9879"
   id="radialGradient9899"
   gradientUnits="userSpaceOnUse"
   cx="27.217808"
   cy="26.12402"
   fx="27.217808"
   fy="26.12402"
   r="11.38739" /><radialGradient
   inkscape:collect="always"
   xlink:href="#linearGradient5603"
   id="radialGradient9905"
   gradientUnits="userSpaceOnUse"
   gradientTransform="matrix(-1.1532346,-0.94204005,0.63262798,-0.77445584,82.385056,104.2448)"
   cx="29.470854"
   cy="20.770115"
   fx="29.470854"
   fy="20.770115"
   r="11.390625" /><radialGradient
   inkscape:collect="always"
   xlink:href="#linearGradient9917"
   id="radialGradient9907"
   gradientUnits="userSpaceOnUse"
   cx="27.217808"
   cy="26.12402"
   fx="27.217808"
   fy="26.12402"
   r="11.38739" /><radialGradient
   inkscape:collect="always"
   xlink:href="#linearGradient9879"
   id="radialGradient9913"
   gradientUnits="userSpaceOnUse"
   cx="25.69949"
   cy="24.099594"
   fx="25.69949"
   fy="24.099594"
   r="11.38739" /><radialGradient
   inkscape:collect="always"
   xlink:href="#linearGradient5603"
   id="radialGradient9915"
   gradientUnits="userSpaceOnUse"
   gradientTransform="matrix(-1.1532346,-0.94204005,0.63262798,-0.77445584,55.011522,75.447846)"
   cx="29.470854"
   cy="20.770115"
   fx="29.470854"
   fy="20.770115"
   r="11.390625" /><radialGradient
   inkscape:collect="always"
   xlink:href="#linearGradient9927"
   id="radialGradient9925"
   gradientUnits="userSpaceOnUse"
   cx="30.001392"
   cy="29.41371"
   fx="30.001392"
   fy="29.41371"
   r="11.38739" /><radialGradient
   inkscape:collect="always"
   xlink:href="#linearGradient5603"
   id="radialGradient9960"
   gradientUnits="userSpaceOnUse"
   gradientTransform="matrix(-1.1532346,-0.94204005,0.63262798,-0.77445584,55.011522,75.447846)"
   cx="29.470854"
   cy="20.770115"
   fx="29.470854"
   fy="20.770115"
   r="11.390625" /><radialGradient
   inkscape:collect="always"
   xlink:href="#linearGradient9879"
   id="radialGradient9962"
   gradientUnits="userSpaceOnUse"
   cx="25.69949"
   cy="24.099594"
   fx="25.69949"
   fy="24.099594"
   r="11.38739" /><radialGradient
   inkscape:collect="always"
   xlink:href="#linearGradient9927"
   id="radialGradient9964"
   gradientUnits="userSpaceOnUse"
   cx="30.001392"
   cy="29.41371"
   fx="30.001392"
   fy="29.41371"
   r="11.38739" /><radialGradient
   inkscape:collect="always"
   xlink:href="#linearGradient5603"
   id="radialGradient9974"
   gradientUnits="userSpaceOnUse"
   gradientTransform="matrix(-1.1532346,-0.94204005,0.63262798,-0.77445584,55.011522,75.447846)"
   cx="29.470854"
   cy="20.770115"
   fx="29.470854"
   fy="20.770115"
   r="11.390625" /><radialGradient
   inkscape:collect="always"
   xlink:href="#linearGradient9879"
   id="radialGradient9976"
   gradientUnits="userSpaceOnUse"
   cx="25.69949"
   cy="24.099594"
   fx="25.69949"
   fy="24.099594"
   r="11.38739" /><radialGradient
   inkscape:collect="always"
   xlink:href="#linearGradient9927"
   id="radialGradient9978"
   gradientUnits="userSpaceOnUse"
   cx="30.001392"
   cy="29.41371"
   fx="30.001392"
   fy="29.41371"
   r="11.38739" /><radialGradient
   inkscape:collect="always"
   xlink:href="#linearGradient5603"
   id="radialGradient9983"
   gradientUnits="userSpaceOnUse"
   gradientTransform="matrix(-1.1532346,-0.94204005,0.63262798,-0.77445584,122.24092,73.257963)"
   cx="29.470854"
   cy="20.770115"
   fx="29.470854"
   fy="20.770115"
   r="11.390625" /><radialGradient
   inkscape:collect="always"
   xlink:href="#linearGradient9879"
   id="radialGradient9991"
   gradientUnits="userSpaceOnUse"
   cx="25.69949"
   cy="24.099594"
   fx="25.69949"
   fy="24.099594"
   r="11.38739" /><radialGradient
   inkscape:collect="always"
   xlink:href="#linearGradient9927"
   id="radialGradient9993"
   gradientUnits="userSpaceOnUse"
   cx="30.001392"
   cy="29.41371"
   fx="30.001392"
   fy="29.41371"
   r="11.38739" /><radialGradient
   inkscape:collect="always"
   xlink:href="#linearGradient9879"
   id="radialGradient10001"
   gradientUnits="userSpaceOnUse"
   cx="25.69949"
   cy="24.099594"
   fx="25.69949"
   fy="24.099594"
   r="11.38739" /><radialGradient
   inkscape:collect="always"
   xlink:href="#linearGradient9927"
   id="radialGradient10003"
   gradientUnits="userSpaceOnUse"
   cx="30.001392"
   cy="29.41371"
   fx="30.001392"
   fy="29.41371"
   r="11.38739" /><radialGradient
   inkscape:collect="always"
   xlink:href="#linearGradient9879"
   id="radialGradient10011"
   gradientUnits="userSpaceOnUse"
   cx="25.69949"
   cy="24.099594"
   fx="25.69949"
   fy="24.099594"
   r="11.38739" /><radialGradient
   inkscape:collect="always"
   xlink:href="#linearGradient9927"
   id="radialGradient10013"
   gradientUnits="userSpaceOnUse"
   cx="30.001392"
   cy="29.41371"
   fx="30.001392"
   fy="29.41371"
   r="11.38739" /><radialGradient
   inkscape:collect="always"
   xlink:href="#linearGradient5603"
   id="radialGradient2982"
   gradientUnits="userSpaceOnUse"
   gradientTransform="matrix(-1.1532346,-0.94204005,0.63262798,-0.77445584,55.011522,75.447846)"
   cx="29.470854"
   cy="20.770115"
   fx="29.470854"
   fy="20.770115"
   r="11.390625" /><radialGradient
   inkscape:collect="always"
   xlink:href="#linearGradient9879"
   id="radialGradient2984"
   gradientUnits="userSpaceOnUse"
   cx="25.69949"
   cy="24.099594"
   fx="25.69949"
   fy="24.099594"
   r="11.38739" /><radialGradient
   inkscape:collect="always"
   xlink:href="#linearGradient9927"
   id="radialGradient2986"
   gradientUnits="userSpaceOnUse"
   cx="30.001392"
   cy="29.41371"
   fx="30.001392"
   fy="29.41371"
   r="11.38739" /><linearGradient
   y2="78.754204"
   x2="39.4995"
   y1="0"
   x1="39.4995"
   gradientTransform="translate(111.38436,-4.9703868)"
   gradientUnits="userSpaceOnUse"
   id="linearGradient3100"
   xlink:href="#SVGID_2_-9"
   inkscape:collect="always" />

<radialGradient
   r="39.499996"
   fy="119.35918"
   fx="31.500809"
   cy="119.35918"
   cx="31.500809"
   gradientTransform="matrix(0.97678193,0.214236,-0.2217603,1.011088,27.453008,-94.294711)"
   gradientUnits="userSpaceOnUse"
   id="radialGradient3135"
   xlink:href="#linearGradient7344-7"
   inkscape:collect="always" /><radialGradient
   r="11.390625"
   fy="20.770115"
   fx="29.470854"
   cy="20.770115"
   cx="29.470854"
   gradientTransform="matrix(-1.1532346,-0.94204005,0.63262798,-0.77445584,55.011522,75.447846)"
   gradientUnits="userSpaceOnUse"
   id="radialGradient3145"
   xlink:href="#linearGradient5603"
   inkscape:collect="always" /><radialGradient
   r="11.38739"
   fy="24.099594"
   fx="25.69949"
   cy="24.099594"
   cx="25.69949"
   gradientUnits="userSpaceOnUse"
   id="radialGradient3147"
   xlink:href="#linearGradient9879"
   inkscape:collect="always" /><radialGradient
   r="11.38739"
   fy="29.41371"
   fx="30.001392"
   cy="29.41371"
   cx="30.001392"
   gradientUnits="userSpaceOnUse"
   id="radialGradient3149"
   xlink:href="#linearGradient9927"
   inkscape:collect="always" /><radialGradient
   r="11.390625"
   fy="20.770115"
   fx="29.470854"
   cy="20.770115"
   cx="29.470854"
   gradientTransform="matrix(-1.1532346,-0.94204005,0.63262798,-0.77445584,55.011522,75.447846)"
   gradientUnits="userSpaceOnUse"
   id="radialGradient3159"
   xlink:href="#linearGradient5603"
   inkscape:collect="always" /><radialGradient
   r="11.38739"
   fy="24.099594"
   fx="25.69949"
   cy="24.099594"
   cx="25.69949"
   gradientUnits="userSpaceOnUse"
   id="radialGradient3161"
   xlink:href="#linearGradient9879"
   inkscape:collect="always" /><radialGradient
   r="11.38739"
   fy="29.41371"
   fx="30.001392"
   cy="29.41371"
   cx="30.001392"
   gradientUnits="userSpaceOnUse"
   id="radialGradient3163"
   xlink:href="#linearGradient9927"
   inkscape:collect="always" /><radialGradient
   r="11.390625"
   fy="20.770115"
   fx="29.470854"
   cy="20.770115"
   cx="29.470854"
   gradientTransform="matrix(-1.1532346,-0.94204005,0.63262798,-0.77445584,55.011522,75.447846)"
   gradientUnits="userSpaceOnUse"
   id="radialGradient3173"
   xlink:href="#linearGradient5603"
   inkscape:collect="always" /><radialGradient
   r="11.38739"
   fy="24.099594"
   fx="25.69949"
   cy="24.099594"
   cx="25.69949"
   gradientUnits="userSpaceOnUse"
   id="radialGradient3175"
   xlink:href="#linearGradient9879"
   inkscape:collect="always" /><radialGradient
   r="11.38739"
   fy="29.41371"
   fx="30.001392"
   cy="29.41371"
   cx="30.001392"
   gradientUnits="userSpaceOnUse"
   id="radialGradient3177"
   xlink:href="#linearGradient9927"
   inkscape:collect="always" /><linearGradient
   y2="65.918701"
   x2="39.4995"
   y1="0.78369999"
   x1="39.4995"
   gradientTransform="translate(105.72354,-1.1208493)"
   gradientUnits="userSpaceOnUse"
   id="linearGradient3260"
   xlink:href="#SVGID_1_-3"
   inkscape:collect="always" /><linearGradient
   y2="78.754204"
   x2="39.4995"
   y1="0"
   x1="39.4995"
   gradientTransform="translate(111.38436,-4.9703868)"
   gradientUnits="userSpaceOnUse"
   id="linearGradient3262"
   xlink:href="#SVGID_2_-9"
   inkscape:collect="always" /><linearGradient
   inkscape:collect="always"
   xlink:href="#SVGID_2_-9"
   id="linearGradient10307"
   gradientUnits="userSpaceOnUse"
   gradientTransform="matrix(0.97268406,0,0,0.97268406,71.851376,24.483251)"
   x1="39.4995"
   y1="0"
   x2="39.4995"
   y2="78.754204" /><linearGradient
   inkscape:collect="always"
   xlink:href="#SVGID_2_-9"
   id="linearGradient10339"
   gradientUnits="userSpaceOnUse"
   gradientTransform="matrix(0.97268406,0,0,0.97268406,71.851376,24.483251)"
   x1="39.4995"
   y1="0"
   x2="39.4995"
   y2="78.754204" /><linearGradient
   inkscape:collect="always"
   xlink:href="#SVGID_1_-3"
   id="linearGradient10341"
   gradientUnits="userSpaceOnUse"
   gradientTransform="translate(105.72354,-1.1208493)"
   x1="39.4995"
   y1="0.78369999"
   x2="39.4995"
   y2="65.918701" /><linearGradient
   inkscape:collect="always"
   xlink:href="#SVGID_1_-3"
   id="linearGradient10344"
   gradientUnits="userSpaceOnUse"
   gradientTransform="matrix(0.97268406,0,0,0.97268406,57.693043,22.816563)"
   x1="39.4995"
   y1="0.78369999"
   x2="39.4995"
   y2="65.918701" /><linearGradient
   inkscape:collect="always"
   xlink:href="#SVGID_1_-3"
   id="linearGradient10352"
   gradientUnits="userSpaceOnUse"
   gradientTransform="matrix(0.97268406,0,0,0.97268406,57.693043,22.816563)"
   x1="39.4995"
   y1="0.78369999"
   x2="39.4995"
   y2="65.918701" /><linearGradient
   inkscape:collect="always"
   xlink:href="#SVGID_2_-9"
   id="linearGradient10354"
   gradientUnits="userSpaceOnUse"
   gradientTransform="matrix(0.97268406,0,0,0.97268406,71.851376,24.483251)"
   x1="39.4995"
   y1="0"
   x2="39.4995"
   y2="78.754204" />


<radialGradient
   inkscape:collect="always"
   xlink:href="#linearGradient7344-7"
   id="radialGradient7233"
   gradientUnits="userSpaceOnUse"
   gradientTransform="matrix(0.95010021,0.20838394,-0.21570271,0.98346918,27.582685,-90.626534)"
   cx="31.500809"
   cy="119.35918"
   fx="31.500809"
   fy="119.35918"
   r="39.499996" /><linearGradient
   id="linearGradient5832"><stop
     id="stop5834"
     offset="0"
     style="stop-color:#62b54f;stop-opacity:1;" /><stop
     id="stop5836"
     offset="1"
     style="stop-color:#255e04;stop-opacity:1;" /></linearGradient><radialGradient
   inkscape:collect="always"
   xlink:href="#linearGradient7344-7"
   id="radialGradient8792"
   gradientUnits="userSpaceOnUse"
   gradientTransform="matrix(0.95010021,0.20838394,-0.21570271,0.98346918,27.582685,-90.626534)"
   cx="31.500809"
   cy="119.35918"
   fx="31.500809"
   fy="119.35918"
   r="39.499996" /></defs>

<g
   id="g8779"
   transform="translate(0.30093833,0.02093588)"><path
     inkscape:connector-curvature="0"
     inkscape:label="#path4462"
     id="path7412"
     d="m 78.06776,40.139984 c 0,28.464626 -9.954449,38.421011 -38.42102,38.421011 -28.464627,0 -38.4210134,-9.956385 -38.4210134,-38.421011 0,-28.464624 9.9563864,-38.4210079 38.4210134,-38.4210079 28.466571,0 38.42102,9.9563839 38.42102,38.4210079 z"
     style="fill:url(#radialGradient8792);fill-opacity:1" /><path
     id="path7241"
     d="m 8.5625,24.15625 c -1.2915475,4.336926 -1.875,9.602848 -1.875,15.96875 0,24.408631 8.560119,32.96875 32.96875,32.96875 24.410298,0 32.9375,-8.560119 32.9375,-32.96875 0,-6.365902 -0.58359,-11.631824 -1.875,-15.96875 l -62.15625,0 z"
     style="fill:#000000;fill-opacity:1"
     inkscape:connector-curvature="0" /><g
     transform="translate(-94.120579,-82.023129)"
     id="text3977"
     style="font-size:40px;font-style:normal;font-weight:normal;line-height:125%;fill:#ffffff;fill-opacity:1;stroke:none;font-family:Bitstream Vera Sans"><g
       id="text8752"
       style="font-size:10px;font-weight:bold;line-height:125%;letter-spacing:0px;word-spacing:0px;font-family:Sans;-inkscape-font-specification:Sans Bold"><path
         id="path8757"
         style="font-size:14px;fill:#c8c8c8"
         d="m 114.96897,97.446388 -2.76172,-3.739258 2.59082,0 1.56543,2.269532 1.58594,-2.269532 2.59082,0 -2.76172,3.725586 2.89844,3.930664 -2.59082,0 -1.72266,-2.419921 -1.70215,2.419921 -2.59082,0 2.89844,-3.916992"
         inkscape:connector-curvature="0" /><path
         id="path8759"
         style="font-size:14px;fill:#c8c8c8"
         d="m 124.73069,91.533302 0,2.173828 2.52246,0 0,1.75 -2.52246,0 0,3.247071 c 0,0.355471 0.0706,0.597007 0.21191,0.724609 0.14128,0.123049 0.42155,0.184572 0.84082,0.18457 l 1.25782,0 0,1.75 -2.09864,0 c -0.96614,0 -1.65202,-0.20052 -2.05761,-0.60156 -0.40105,-0.4056 -0.60157,-1.091472 -0.60157,-2.057619 l 0,-3.247071 -1.21679,0 0,-1.75 1.21679,0 0,-2.173828 2.44727,0"
         inkscape:connector-curvature="0" /><path
         id="path8761"
         style="font-size:14px;fill:#c8c8c8"
         d="m 136.39964,97.514748 0,0.697265 -5.72168,0 c 0.0592,0.574222 0.26659,1.004885 0.62207,1.291992 0.35546,0.287111 0.8522,0.430666 1.49023,0.430664 0.51497,2e-6 1.04134,-0.07519 1.5791,-0.225585 0.54231,-0.154947 1.0983,-0.387368 1.66797,-0.697266 l 0,1.886722 c -0.57878,0.21875 -1.15756,0.38281 -1.73633,0.49218 -0.57878,0.11394 -1.15756,0.1709 -1.73633,0.1709 -1.38542,0 -2.46321,-0.35091 -3.23339,-1.05273 -0.76563,-0.70638 -1.14844,-1.695312 -1.14844,-2.966799 0,-1.248692 0.37597,-2.230788 1.12793,-2.946289 0.75651,-0.715487 1.79557,-1.073234 3.11719,-1.073242 1.20311,8e-6 2.1647,0.362312 2.88476,1.086914 0.7246,0.724616 1.08691,1.693039 1.08692,2.905274 m -2.51563,-0.813477 c -1e-5,-0.464839 -0.13672,-0.838536 -0.41016,-1.121094 -0.26888,-0.287103 -0.62207,-0.430658 -1.05957,-0.430664 -0.47396,6e-6 -0.85905,0.134446 -1.15527,0.403321 -0.29623,0.264328 -0.4808,0.64714 -0.55371,1.148437 l 3.17871,0"
         inkscape:connector-curvature="0" /><path
         id="path8763"
         style="font-size:14px;fill:#c8c8c8"
         d="m 143.93284,95.792091 c -0.2142,-0.100254 -0.42839,-0.173171 -0.64258,-0.21875 -0.20964,-0.05012 -0.42155,-0.07519 -0.63574,-0.07519 -0.62891,6e-6 -1.11426,0.202805 -1.45606,0.608398 -0.33724,0.401047 -0.50586,0.977544 -0.50586,1.729493 l 0,3.527338 -2.44726,0 0,-7.656245 2.44726,0 0,1.257813 c 0.31445,-0.501295 0.67448,-0.865878 1.08008,-1.09375 0.41015,-0.232414 0.90006,-0.348625 1.46973,-0.348633 0.082,8e-6 0.17089,0.0046 0.2666,0.01367 0.0957,0.0046 0.23469,0.01824 0.41699,0.04102 l 0.007,2.214843"
         inkscape:connector-curvature="0" /><path
         id="path8765"
         style="font-size:14px;fill:#c8c8c8"
         d="m 152.25901,94.978615 c 0.30989,-0.473952 0.67675,-0.833977 1.10059,-1.080078 0.42837,-0.250644 0.89777,-0.375969 1.4082,-0.375977 0.87955,8e-6 1.54947,0.271167 2.00977,0.813477 0.46027,0.542324 0.69041,1.330735 0.69042,2.365234 l 0,4.662109 -2.46093,0 0,-3.992187 c 0.005,-0.05924 0.007,-0.120764 0.007,-0.18457 0.005,-0.0638 0.007,-0.154944 0.007,-0.273438 -1e-5,-0.542313 -0.0798,-0.934239 -0.23926,-1.175781 -0.15951,-0.246088 -0.417,-0.369135 -0.77246,-0.369141 -0.46485,6e-6 -0.82488,0.191412 -1.08008,0.574219 -0.25066,0.382818 -0.38054,0.936528 -0.38965,1.661133 l 0,3.759765 -2.46093,0 0,-3.992187 c -1e-5,-0.847651 -0.0729,-1.392247 -0.21875,-1.633789 -0.14584,-0.246088 -0.40561,-0.369135 -0.7793,-0.369141 -0.46941,6e-6 -0.83171,0.193691 -1.08691,0.581055 -0.25522,0.382817 -0.38282,0.931971 -0.38282,1.647461 l 0,3.766601 -2.46093,0 0,-7.65625 2.46093,0 0,1.121094 c 0.30078,-0.432936 0.64486,-0.758782 1.03223,-0.977539 0.39192,-0.218742 0.82259,-0.328117 1.29199,-0.328125 0.52864,8e-6 0.99576,0.127612 1.40137,0.382813 0.40559,0.255215 0.71321,0.612962 0.92285,1.073242"
         inkscape:connector-curvature="0" /></g></g><path
     sodipodi:nodetypes="ccccccc"
     inkscape:connector-curvature="0"
     id="rect8767"
     d="m 18.59375,26.28125 -3.5625,3.5625 6.8125,6.8125 -6.8125,6.8125 3.5625,3.5625 c 3.458333,-3.458333 6.916667,-6.916667 10.375,-10.375 -3.458333,-3.458333 -6.916667,-6.916667 -10.375,-10.375 z"
     style="color:#000000;fill:#00d000;fill-opacity:1;fill-rule:nonzero;stroke:none;stroke-width:1;marker:none;visibility:visible;display:inline;overflow:visible;enable-background:accumulate" /><rect
     style="color:#000000;fill:#00d000;fill-opacity:1;fill-rule:nonzero;stroke:none;stroke-width:1;marker:none;visibility:visible;display:inline;overflow:visible;enable-background:accumulate"
     id="rect8772"
     width="14.672215"
     height="2.7618487"
     x="-47.164341"
     y="-47.517426"
     transform="scale(-1,-1)" /></g><g
   id="g10346"
   transform="translate(-56.166377,-21.076663)"><path
     inkscape:connector-curvature="0"
     style="opacity:0.2;fill:url(#linearGradient10352)"
     d="m 134.53507,61.237583 c 0,28.464623 -9.95444,38.421023 -38.421016,38.421023 -28.464617,0 -38.421011,-9.9564 -38.421011,-38.421023 0,-28.464626 9.956394,-38.42102 38.421011,-38.42102 28.466566,0 38.421016,9.956394 38.421016,38.42102 z"
     id="path4471" /><g
     transform="translate(-14.15834,-1.666686)"
     id="g10335"><path
       inkscape:connector-curvature="0"
       id="path4464"
       d="m 110.27236,100.35261 c -28.299263,0 -38.300401,-9.84843 -38.415178,-37.934682 -9.72e-4,0.164384 -0.0058,0.320986 -0.0058,0.486342 0,28.464627 9.956395,38.42102 38.421018,38.42102 28.46656,0 38.42101,-9.956393 38.42101,-38.42102 0,-0.165356 -0.005,-0.321958 -0.006,-0.486342 -0.11478,28.086252 -10.11397,37.934682 -38.41519,37.934682 z"
       style="opacity:0.5" /><path
       inkscape:connector-curvature="0"
       id="path4478"
       d="m 110.2724,24.483251 c -28.464629,0 -38.421024,9.956394 -38.421024,38.42102 0,28.464627 9.956395,38.421019 38.421024,38.421019 28.46657,0 38.42102,-9.956392 38.42102,-38.421019 0,-28.464626 -9.95445,-38.42102 -38.42102,-38.42102 z m 0,75.869359 c -27.998713,0 -37.448339,-9.449628 -37.448339,-37.448339 0,-27.99871 9.449625,-37.448336 37.448339,-37.448336 27.9987,0 37.44833,9.449626 37.44833,37.448336 0,27.998711 -9.44963,37.448339 -37.44833,37.448339 z"
       style="opacity:0.25;fill:url(#linearGradient10354)" /></g></g>
</svg>